<?xml version="1.0" encoding="utf-8"?>
<!-- Generator: Adobe Illustrator 15.1.1, SVG Export Plug-In . SVG Version: 6.00 Build 0)  -->
<!DOCTYPE svg PUBLIC "-//W3C//DTD SVG 1.1//EN" "http://www.w3.org/Graphics/SVG/1.1/DTD/svg11.dtd">
<svg version="1.1" id="Layer_1" xmlns="http://www.w3.org/2000/svg" xmlns:xlink="http://www.w3.org/1999/xlink" x="0px" y="0px"
	 width="800px" height="300px" viewBox="0 0 800 300" enable-background="new 0 0 800 300" xml:space="preserve">
<g id="XMLID_2_">
	<g>
		<path fill="#FFFFFF" d="M203.35,146.88c0,22.73,0,45.46,0,68.19c-21.29,0-42.58,0-63.87,0c1.49-1.73,2.67-3.761,4.6-5.061
			c0.51,0.01,0.61-0.399,1.02-0.5c4.44,0.36,8.52,0.16,12.24-0.51c0.01,0,0.01,0,0.02,0c0.01,0,0.03-0.01,0.04-0.01
			c18.34-3.32,28.09-18.061,31.13-33.32c0.27-1.36,0.37-2.939,0.51-4.55c0.21-2.29,0.5-4.65,1.53-6.561
			c0.89-1.67,2.9-2.819,4.89-4.04c0.07,0,0.15,0,0.22,0c0.04-0.079,0.08-0.149,0.13-0.22c1.54-0.95,3.04-1.97,3.96-3.319
			C202.25,153.36,201.56,150.86,203.35,146.88z"/>
		<path fill="#D2D2D3" d="M203.35,143.85c0,1.01,0,2.02,0,3.03c-1.79,3.98-1.1,6.48-3.58,10.101c-0.92,1.35-2.42,2.369-3.96,3.319
			c0.91-1.51,2.61-2.25,3.45-3.819c1.72-2.851,2.68-6.451,3.57-10.101C203.11,145.64,202.24,143.76,203.35,143.85z"/>
		<path fill="#6A6B6F" d="M203.35,133.75c0,3.37,0,6.73,0,10.1c-1.11-0.09-0.24,1.79-0.52,2.53c-1.06-1.85-0.7-12.56,0-14.15
			C202.91,132.83,202.75,133.67,203.35,133.75z"/>
		<path fill="#D2D2D3" d="M203.35,131.73c0,0.67,0,1.34,0,2.02c-0.6-0.08-0.44-0.92-0.52-1.52c-0.77-2.77-1.49-5.59-2.04-8.58
			c-0.17,0-0.34,0-0.51,0c-1.4-6.53-5.05-10.84-7.15-16.67C197.6,114.17,201.07,122.36,203.35,131.73z"/>
		<path fill="#FFFFFF" d="M203.35,50.92c0,26.93,0,53.87,0,80.81c-2.28-9.37-5.75-17.56-10.22-24.75c-0.9-2.15-2.23-3.86-3.07-6.06
			c-10.29-20.47-24.21-37.35-45.98-46.47c-1.19-0.17-2.11-0.61-3.07-1.01c-1.7-1.34-4.74-1.37-6.64-2.52
			C157.36,50.92,180.35,50.92,203.35,50.92z"/>
		<path fill="#767E89" d="M202.83,132.23c-0.7,1.59-1.06,12.3,0,14.15c-0.89,3.65-1.85,7.25-3.57,10.101
			c-2.39,0.329-3.75,1.68-4.09,4.039c-0.41,0.261-0.83,0.521-1.53,0.5c0.07-2.25-1.31,0.45-2.56,0c-0.55-1.09,0.65-5.26-0.51-7.069
			c2.51-3.08,6.8-4.39,5.62-11.11c-1.6,1.4-0.15,2.81-1.02,4.55c-0.15,1.88-1.27-1.49,0-1.01c-2.48-1.26-3.48-3.97-4.6-6.57
			c0.51-0.7,0.84,0.21,1.53-1.01c-0.22-0.75-0.65,0.2-1.53,0c0.15-2.84-0.89-4.5-2.55-5.56c0.37-0.9,0.93-0.07,1.53,0
			c-3.38-5.25-2.07-9.02-3.58-15.65c3.47-1.45-2.55-7-6.13-4.05c0.07-4.18-4.24-6.48-3.06-10.1c-0.53-2.32-2.03-0.39-2.56-1.01
			c-0.08-0.58,0.12-0.9,0.51-1.01c1.08-2.15,1.52,1.22,3.58,1.01c-0.79-1.4-1.6-2.79-2.55-4.04c-0.94-1.1-0.5-3.55-2.05-4.04
			c-2.16-3.85-5.7-4.79-8.68-8.58c-1.05-0.15-1.01-1.37-2.05-1.52c0.79-3.28-1.44-4.72-1.53-7.07c-5.09-1.19-10.36-0.36-13.79-2.02
			c-4.31-2.52-9.66-4.42-13.8-2.02c-0.74,0.22,0.05,0.44,0,1.01c-1.11,1.1-3.59-0.39-6.64,0c-1.36,0-2.73,0-4.09,0
			c-0.35-1.68,1.06-0.82,1.53-0.51c0.26-1.59-2.53-0.18-2.04-2.02c2.94,0.08,4.42-3.52,6.64-2.52c-1.3-11.01-16.24-2.75-24.01-0.51
			c-2.64,0.59-4.82,1.64-7.15,2.53c-1.12-2.52-4.09,1.14-5.11,0c0.67-0.52,1.88-0.5,2.55-1.01c0-0.84,0-1.69,0-2.53
			c-1.02,0-2.04,0-3.06,0c-0.28,1.75,0.76,4.79-1.02,5.05c0.24-2.08-1.29,0.48-2.05,0.51c-0.51,0-1.02,0-1.53,0
			c-6.93-0.93-18.49-5.62-24.53-1.01C50,66.18,51.27,86.86,41.9,89.81c1.18,1.12-0.18,1.97,0,3.53c-0.42,0.1-0.51,0.51-1.02,0.51
			c-0.25,1.58,1.37,1.33,1.53,2.52c-3.25,4.87-9.09,7.18-11.24,13.13c-0.98,0.22-1.29,1.09-2.56,1.01
			c-0.14-2.05-2.32-2.08-3.06-3.53c-2.5,1.56-3.94,4.56-6.13,5.05c0.83,2,3.49-1.12,4.08-2.53c0.49,3.95-4.79,3.6-5.11,8.59
			c-2.01,0.39-3.34,3.51-5.1,2.53c0.07-2.19,0.81-3.5-1.03-4.55c-2.94-0.53-0.7,1.71-2.55,1.52c-0.06-0.85,1.65-3.22-0.51-3.03
			c0.13-2.4,1.56-3.51,2.04-5.56c1.63,0.43,1.58-0.8,2.56-1.01c0.18-0.86-0.4-0.95-1.03-1.01c1.96-4.81,4.83-8.7,7.67-12.63
			c1.5,0.43,3.32-1.37,2.04-2.02C29.9,81.82,42.37,76.3,52.63,68.59c2.25-0.79,4.62-1.49,6.64-2.52c-0.07,0.9,0.62,1.06,0.51,2.02
			c3.43-0.65,5.41-2.74,8.17-4.04c-0.44-0.41-0.3-1.39-1.02-1.52c0.03-0.31,0.08-0.6,0.51-0.5c5.56-1.58,9.4-4.86,15.33-6.06
			c3.45,1.5,7.62,0.36,9.2,1.51c6.09,0.78,13.37-4.87,24.52-3.53c1.46,6.26,7.83,1.16,11.75,1.01c5.63-0.22,10.19,3.5,14.82,4.54
			c-1.46,0.26,0.82,0.75,1.02,1.01c-0.41,1.12-2.4,0.66-2.56,2.02c0.42-0.26,0.83-0.52,1.54-0.5c-1.06,0.97,0.19,4.23-1.54,4.54
			c2.25,2.03,8.93,3.75,7.67-2.52c0.9-0.94,1.49,0.22,2.55,0.5c-0.18-0.66-0.9-0.79-1.02-1.51c6.28,4.87,14.68,6.79,19.42,13.13
			c0.99,1.32,1.13,3.17,2.04,4.54c1.61,2.43,3.98,3.95,5.11,6.57c5.24,12.13,13.58,24.38,17.37,37.38c2.3,0.59,1.89,1.57,3.07,2.52
			c-0.1-2.52,1.72,1.6,2.04-1.01c-0.54,0.02-1.3-0.24-0.51-0.5c0.27-1.79-2.88,0.31-3.58-1.52c2.44,0.89,2.27-0.29,4.6-0.5
			c0.17,0,0.34,0,0.51,0C201.34,126.64,202.06,129.46,202.83,132.23z M48.03,74.65c-1.35-0.79-5.53,2.13-5.11,3.03
			c0.74-0.78,1.99-1.06,3.58-1.01c-0.45-2.07,3.38-1.28,3.57-4.04C48.89,72.95,46.99,73.64,48.03,74.65z M29.63,87.28
			c2.9-1.22,7.5-2.43,7.67-5.55C34.99,81.9,30.35,85.65,29.63,87.28z"/>
		<path fill="#6A6B6F" d="M199.26,125.67c-0.79,0.26-0.03,0.52,0.51,0.5c-0.32,2.61-2.14-1.51-2.04,1.01
			c-1.18-0.95-0.77-1.93-3.07-2.52c-3.79-13-12.13-25.25-17.37-37.38c-1.13-2.62-3.5-4.14-5.11-6.57c-0.91-1.37-1.05-3.22-2.04-4.54
			c-4.74-6.34-13.14-8.26-19.42-13.13c-2.46-1.27-4.5-2.96-7.66-3.54c-4.63-1.04-9.19-4.76-14.82-4.54
			c-3.92,0.15-10.29,5.25-11.75-1.01c-11.15-1.34-18.43,4.31-24.52,3.53c-1.58-1.15-5.75-0.01-9.2-1.51
			c0.31-0.03,0.6-0.08,0.51-0.51c3.61,0.54,4.7-1.42,8.18-1.01c-0.07,2.09,3.28,0.26,2.55-1.51c7.25-1.37,15.55-0.37,22.48-1.01
			c1.66-0.05,3.14-0.26,4.09-1.01c3.23,0,6.47,0,9.7,0c3.77,0.65,7.2,1.63,10.73,2.52c0.96,0.4,1.88,0.84,3.07,1.01
			c5.53,2.62,10.89,5.4,15.33,9.09c0,0.68,0,1.35,0,2.02c1.11-0.32,1.62,1.43,1.53-0.5c0.34,0,0.68,0,1.02,0
			c0.29,0.73,0.8,1.23,1.53,1.51c1.62,4.34,6.66,7.28,9.2,9.09c0,0.17,0,0.34,0,0.51c-1.28,0.65,0.54,2.45,2.04,2.02
			c0,0.17,0,0.34,0,0.5c-0.85,1.04,1.49,4.19,3.07,3.04c0,0.16,0,0.33,0,0.5c-1.68,2.44,1.57,5.92,6.13,8.08
			c2.3,3.28,3.9,7.26,6.13,10.61c0.84,2.2,2.17,3.91,3.07,6.06c2.1,5.83,5.75,10.14,7.15,16.67c-2.33,0.21-2.16,1.39-4.6,0.5
			C196.38,125.98,199.53,123.88,199.26,125.67z"/>
		<path fill="#8B8D92" d="M199.26,156.48c-0.84,1.569-2.54,2.31-3.45,3.819c-0.11,0.08-0.23,0.15-0.35,0.22c-0.1,0-0.19,0-0.29,0
			C195.51,158.16,196.87,156.81,199.26,156.48z"/>
		<path fill="#8B8D92" d="M196.19,142.84c1.18,6.72-3.11,8.03-5.62,11.11c1.16,1.81-0.04,5.979,0.51,7.069
			c1.25,0.45,2.63-2.25,2.56,0c-1.05,1.32-2.74,2.011-3.58,3.54c-1.09,0.23-0.97-0.72-1.02-1.52c-2.2,0.64-4.46,0.59-6.13-0.5
			c-0.6,0.08-0.91-0.11-1.02-0.51c0.59,0.08,0.91-0.11,1.02-0.5c-0.66-0.7-3.06-0.88-3.07,0.5c0.34,0,0.68,0,1.03,0
			c-0.01,1.01-1.4,0.64-1.03,2.02c-0.22,0.62-0.65,1.04-1.53,1.01c9.55,4.24,2.06,15.221-3.06,20.21
			c-1.96,1.601-4.32,2.801-5.11,5.551c1.77-1.62,3-3.771,5.11-5.051c-1.1,2.11-3.74,2.7-4.09,5.561c2.57-0.83,3.67-3.1,5.11-5.05
			c1.05-0.15,1.02-1.351,1.53-2.021c0.94,1.29-2.06,2.99-2.04,5.05c1.15,0.28,3.45-1.06,3.57,2.021c1.58-0.29,1.01-2.71,3.58-2.021
			c-5.52,9.511-13.22,16.86-25.51,19.681c-0.01,0-0.03,0.01-0.04,0.01c-0.26-1.76-3.34-0.74-5.11-1.01
			c-0.57-1.45-2.19-1.87-4.08-2.021c4.03-1.35-3.84-1.37-3.07,0c-0.43-0.09-0.48,0.2-0.51,0.511c-0.68,0-1.36,0-2.04,0
			c-13.64-0.16-9.05-16.25-8.18-24.75c1.2-0.171,2.11-0.61,3.07-1.011c0.97-2.939,0.16-6.34-1.54-8.08
			c-0.39-0.449-0.54-1.14-0.51-2.02c-0.92-1.271-2.97-1.44-3.57-3.03c2.94,2.851,8.88,1.48,12.77,1.51c0.17,0,0.34,0,0.51,0
			c0.68,1.641,0.72,4.62,2.78,3.69c-7.15,3.84-13.98,11.2-13,20.05c0.82,7.43,11.93,13.46,19.93,6.57c1.41,0.06,1.75,0.96,1.02-0.51
			c0.55,1.29,4.29-2.061,3.07,0.51c2.52-1.21,5.68-1.79,7.15-4.04c-0.41-2.46-4.2-1.58-6.64-2.021c0.01-0.489,0.62-0.39,1.02-0.51
			c-2.91-2.12,3.44-1.83,6.13-2.52c2.87-4.011,7.25-7.38,6.13-12.63c1.16,0.14,1.92-0.12,2.04-1.011c1.54,0.86,0.57,1.84,0.52,3.53
			c3.03-8.16-2.09-10.979-7.67-12.12c-2-0.41-4.41-1.649-6.64-1.51c-1.94,0.12-5.74,2.52-5.62-2.021c3.68-0.989,6.44-2.97,9.2-3.54
			c2.88,0.74,2.4-0.31,4.59-1.01c-0.28-1.029-1.53-0.99-0.51-2.02c0.97,0.06,0.36,1.67,1.54,1.52c0.26-5.279,5.03-6.99,10.73-8.59
			c0.15,1.17-1.48,0.561-1.54,1.521c5.9,0.56,8.36-6.601,5.11-10.61c1.1-3.12,1.64-8.49,1.02-12.63c-0.86-5.77-8.03-9.2-5.62-15.66
			c3.58-2.95,9.6,2.6,6.13,4.05c1.51,6.63,0.2,10.4,3.58,15.65c-0.6-0.07-1.16-0.9-1.53,0c1.66,1.06,2.7,2.72,2.55,5.56
			c0.88,0.2,1.31-0.75,1.53,0c-0.69,1.22-1.02,0.31-1.53,1.01c1.12,2.6,2.12,5.31,4.6,6.57c-1.27-0.48-0.15,2.89,0,1.01
			C196.04,145.65,194.59,144.24,196.19,142.84z M179.33,161.02c-0.04-1.979,5.14,0.45,3.07-2.52c-0.21,0.63-0.66,1.03-1.53,1.01
			c0.95-2.29-1.84-0.88-2.05-2.02c0.06-0.96,1.69-0.351,1.53-1.521c-0.68,0-1.36,0-2.04,0c-0.4,2.17,1.28,3.261-0.51,4.04
			c0.31,0.03,0.6,0.08,0.51,0.51C178.82,160.52,178.92,160.93,179.33,161.02z M173.2,158.5c-0.86-2.56,3.09-2.97,1.53-4.55
			c-0.68,1.17-1.45,2.27-2.55,3.03C173.24,157.13,171.42,158.35,173.2,158.5z"/>
		<path fill="#8B8D92" d="M195.81,160.3c-0.05,0.07-0.09,0.141-0.13,0.22c-0.07,0-0.15,0-0.22,0
			C195.58,160.45,195.7,160.38,195.81,160.3z"/>
		<path fill="#D2D2D3" d="M195.46,160.52c-1.99,1.221-4,2.37-4.89,4.04c-1.03,1.91-1.32,4.271-1.53,6.561c0-1.17,0-2.351,0-3.53
			c0.85-0.51,0.55-2.149,1.02-3.03c0.84-1.529,2.53-2.22,3.58-3.54c0.7,0.021,1.12-0.239,1.53-0.5
			C195.27,160.52,195.36,160.52,195.46,160.52z"/>
		<path fill="#767E89" d="M189.04,163.04c0.05,0.8-0.07,1.75,1.02,1.52c-0.47,0.881-0.17,2.521-1.02,3.03c-0.34,0-0.68,0-1.02,0
			c0.37,1.15-0.92,3.94,1.02,3.53c-0.88,0.31,0.04,2.399-1.02,2.53c-0.34,0-0.68,0-1.02,0c0.31,1.04-0.83,3.51,1.02,3.029
			c-1.17,4.74-3.01,8.811-5.11,12.63c-2.57-0.689-2,1.73-3.58,2.021c-0.12-3.08-2.42-1.74-3.57-2.021
			c-0.02-2.06,2.98-3.76,2.04-5.05c-0.51,0.67-0.48,1.87-1.53,2.021c0.09-0.41,0.51-0.511,0.51-1.011
			c-0.83-0.149-0.88,0.471-1.53,0.5c0-0.17,0-0.34,0-0.5c5.12-4.989,12.61-15.97,3.06-20.21c0.88,0.03,1.31-0.39,1.53-1.01
			c1.49,0.391,1.33,2.4,3.58,2.021c-0.01-1.34,0.19-2.88-0.51-3.53C184.58,163.63,186.84,163.68,189.04,163.04z M188.02,166.58
			c0-0.51,0-1.01,0-1.521c-1.57,0.36-0.98,0.36-2.56,0C185.28,166.6,187.13,166.11,188.02,166.58z"/>
		<path fill="#6A6B6F" d="M189.04,167.59c0,1.18,0,2.36,0,3.53c-1.94,0.41-0.65-2.38-1.02-3.53
			C188.36,167.59,188.7,167.59,189.04,167.59z"/>
		<path fill="#D2D2D3" d="M189.04,171.12c-0.14,1.61-0.24,3.189-0.51,4.55c-3.04,15.26-12.79,30-31.13,33.32
			c12.29-2.82,19.99-10.17,25.51-19.681c2.1-3.819,3.94-7.89,5.11-12.63c0-1.01,0-2.02,0-3.029
			C189.08,173.52,188.16,171.43,189.04,171.12z"/>
		<path fill="#6A6B6F" d="M188.02,173.65c0,1.01,0,2.02,0,3.029c-1.85,0.48-0.71-1.989-1.02-3.029
			C187.34,173.65,187.68,173.65,188.02,173.65z"/>
		<path fill="#6A6B6F" d="M188.02,165.06c0,0.511,0,1.011,0,1.521c-0.89-0.47-2.74,0.02-2.56-1.521
			C187.04,165.42,186.45,165.42,188.02,165.06z"/>
		<path fill="#8293A9" d="M185.46,129.2c0.62,4.14,0.08,9.51-1.02,12.63c3.25,4.01,0.79,11.17-5.11,10.61
			c0.06-0.96,1.69-0.351,1.54-1.521c-5.7,1.6-10.47,3.311-10.73,8.59c-1.18,0.15-0.57-1.46-1.54-1.52
			c-1.02,1.029,0.23,0.99,0.51,2.02c-2.19,0.7-1.71,1.75-4.59,1.01c-2.76,0.57-5.52,2.551-9.2,3.54
			c-4.43,0.671-8.97,1.23-10.73,4.54c-3.89-0.029-9.83,1.341-12.77-1.51c-0.34,0-0.68,0-1.02,0c-3.64,3.141-7.58,5.98-13.29,7.07
			c-1.19,0-2.38,0-3.57,0c1.18-2.2,4.88-1.9,6.13-4.04c2.5-1.061,4.32-2.8,6.64-4.04c1.43-0.78,2.99-1.42,3.57-3.03
			c1.02-0.01,0.65-1.38,2.05-1.01c0.66-0.7,2.22-0.5,3.57-0.51c0.74,3.989,6.63,2.88,11.25,3.029
			c2.87-5.739,10.46-6.829,17.88-8.079c3.06-4.19,1.46-10.661,0-15.15c3.3-5.88,9.13-11.43,10.22-17.17
			c-0.07,0.36,0.15,1.02,0.51,1.01c0.59-3.25-1.69-3.63,0-5.05c-1.69-0.71-2.57-1.26-2.56,0c-2.73-5.21-4.81-6.69-3.58-13.64
			c0.82,0.7,1.72-0.81,2.56-2.53c-0.6-1.38-2-4.61,0.51-5.05c0.49,0.94-1.53,1.69,0,2.02c1.89-1.72-0.24-6.73-3.07-5.55
			c0.46,0.29,2.92,1.06,1.54,1.51c-3.2-0.16-4.1-4.28-7.67-2.52c1.19-1.45-1.18-0.43-3.06-1.01c-2-2.64-1.08-5.11-2.56-8.08
			c0.81-0.05,1.78,0.06,1.54-1.01c-1.28-0.7-1.22-1.44-1.54-2.02c-0.88,0.3,0.04,2.39-1.02,2.52c-2.66-1.64-3.77-7.03-7.15-5.05
			c0.6,0.25,1.16,0.54,1.53,1.01c-2.87,0.89-6.93,2.4-10.22,2.02c-1.32-0.15-1.63-2.41-2.55-0.5c0.16-0.69,0.73-0.97,0.51-2.03
			c-1.93-0.63-5.93-1.86-8.17-0.5c4.23,0.4,1.09,0.27,3.57,2.53c-3.28-0.1-8.33,1.46-10.73-2.03c1.16-1.78-1.08-1.77,0-4.04
			c-3.63-1.3-4.14-0.09-8.17,0c1.71-2.25-6.11-2.26-5.11-5.05c-4.84,0.22-12.35-0.29-14.82,2.02c0.32,0.7,1.97,0.08,2.05,1.01
			c-2.48,0.4-8.88-0.04-9.71-1.51c0.51,0,1.02,0,1.53,0c2.88,0.94,6.46-0.75,8.69-2.02c2.33-0.89,4.51-1.94,7.15-2.53
			c3.76,0.62,12.44-2.33,14.82,1.52c-2.42,0.33,1.36,1.84-0.51,3.53c1.22,1.16,5.87,1.58,7.66,0.51c3.05-0.39,5.53,1.1,6.64,0
			c3.64,4.04,8.06,3.46,13.8,1.01c3.43,1.66,8.7,0.83,13.79,2.02c0.09,2.35,2.32,3.79,1.53,7.07c1.04,0.15,1,1.37,2.05,1.52
			c0,0.5-0.42,0.6-0.51,1.01c0.34,0,0.68,0,1.02,0c-1.38,2.98,2.09,3.56,1.53,6.06c2.47,0.25,4.51,0.93,6.64,1.51
			c1.55,0.49,1.11,2.94,2.05,4.04c-0.17,0-0.34,0-0.51,0c0.37,1.55-0.89,1.49-0.52,3.03c-0.39,0.11-0.59,0.43-0.51,1.01
			c0.53,0.62,2.03-1.31,2.56,1.01c-1.18,3.62,3.13,5.92,3.06,10.1C177.43,120,184.6,123.43,185.46,129.2z"/>
		<path fill="#D2D2D3" d="M190.06,100.92c-2.23-3.35-3.83-7.33-6.13-10.61c-2.03-2.71-3.6-5.87-6.13-8.08c0-0.17,0-0.34,0-0.5
			c-0.81-1.23-1.83-2.24-3.07-3.04c0-0.16,0-0.33,0-0.5c-0.46-0.89-1.14-1.56-2.04-2.02c0-0.17,0-0.34,0-0.51
			c-0.98-1.39-2.17-2.57-3.58-3.53c-1.49-1.9-3.19-3.58-5.11-5.05c-0.02-0.31-0.07-0.6-0.51-0.51c-0.73-0.28-1.24-0.78-1.53-1.51
			c-0.34,0-0.68,0-1.02,0c-0.29-0.73-0.8-1.23-1.53-1.52c-4.44-3.69-9.8-6.47-15.33-9.09C165.85,63.57,179.77,80.45,190.06,100.92z"
			/>
		<path fill="#6A6B6F" d="M182.91,162.54c0.7,0.65,0.5,2.19,0.51,3.53c-2.25,0.38-2.09-1.63-3.58-2.021
			c-0.37-1.38,1.02-1.01,1.03-2.02c0.34,0,0.68,0,1.02,0C182,162.43,182.31,162.62,182.91,162.54z"/>
		<path fill="#A1A1A1" d="M182.4,158.5c2.07,2.97-3.11,0.54-3.07,2.52c-0.41-0.09-0.51-0.5-1.02-0.5c0.09-0.43-0.2-0.479-0.51-0.51
			c1.79-0.779,0.11-1.87,0.51-4.04c0.68,0,1.36,0,2.04,0c0.16,1.17-1.47,0.561-1.53,1.521c0.21,1.14,3-0.271,2.05,2.02
			C181.74,159.53,182.19,159.13,182.4,158.5z"/>
		<path fill="#A1A1A1" d="M182.91,161.53c-0.11,0.39-0.43,0.58-1.02,0.5c-0.34,0-0.68,0-1.02,0c-0.35,0-0.69,0-1.03,0
			C179.85,160.65,182.25,160.83,182.91,161.53z"/>
		<path fill="#767E89" d="M177.8,82.23c2.53,2.21,4.1,5.37,6.13,8.08C179.37,88.15,176.12,84.67,177.8,82.23z"/>
		<path fill="#8B8D92" d="M178.31,102.43c-2.06,0.21-2.5-3.16-3.58-1.01c-0.37-1.54,0.89-1.48,0.52-3.03c0.17,0,0.34,0,0.51,0
			C176.71,99.64,177.52,101.03,178.31,102.43z"/>
		<path fill="#8B8D92" d="M177.8,81.73c-1.58,1.15-3.92-2-3.07-3.04C175.97,79.49,176.99,80.5,177.8,81.73z"/>
		<path fill="#6A6B6F" d="M175.25,185.77c0.65-0.029,0.7-0.649,1.53-0.5c0,0.5-0.42,0.601-0.51,1.011
			c-1.44,1.95-2.54,4.22-5.11,5.05C171.51,188.47,174.15,187.88,175.25,185.77z"/>
		<path fill="#7399AB" d="M175.76,120.62c-1.69,1.42,0.59,1.8,0,5.05c-0.36,0.01-0.58-0.65-0.51-1.01
			c-1.09,5.74-6.92,11.29-10.22,17.17c1.46,4.49,3.06,10.96,0,15.15c-7.42,1.25-15.01,2.34-17.88,8.079
			c-4.62-0.149-10.51,0.96-11.25-3.029c-1.35,0.01-2.91-0.19-3.57,0.51c2.45-2.46,5.32-4.51,7.15-7.58c0.76,0.22-0.2,0.65,0,1.521
			c1.71,0,2.11-1.28,3.07-2.021c10.73,2.26,11.66-8.82,14.81-15.66c0.83-0.14,0.88,0.48,1.54,0.5c0-0.5,0-1.01,0-1.51
			c-3.71,0.13,1.74-3.81,4.08-5.05c2.67-5.65-3.79-11.08-4.08-15.15c-0.23-3.1,2.54-5.42,2.55-8.09
			c0.03-6.85-6.64-15.41-15.84-15.65c-0.58-3.14-1.01-6.41-3.06-8.08c-6.25-0.46-7.16,4.37-8.69,8.58c-2.09,0.15,0.09-0.7-0.51-2.02
			c-6.95,6.52-21.9-0.26-22.48,13.13c-1.22,0.31-2.33,0.73-4.09,0.51c2.95-11.43-6.76-13.27-8.17-19.7
			c-0.32-2.06-2.14-0.29-2.05-2.02c-1.01,0.01-0.65,1.38-2.04,1.01c-0.28-1.12,0.98-0.72,1.02-1.51c-0.05-0.97-1.99,0.31-2.04,1.01
			c-0.76-0.22,0.2-0.65,0-1.52c-1.38-0.35-0.99,1.04-1.53,1.52c-2.65-0.65-7.06-4.16-9.71-1.52c-2.2-0.69-3.22-2.54-4.09-4.55
			c-10.38-1.43-18.16,3.42-18.9,13.14c-6.66,2.46-15.59,8.98-9.71,17.67c-2.3,7.37-11.56,8.37-13.28,15.16
			c-0.67,2.63,1.07,4.22,1.02,7.07c-0.05,2.72-2.54,5.73-1.53,9.09c-0.87-0.19-0.97,0.39-1.03,1.01c-2.99-1.84-2.74-7.23-1.53-10.1
			c1.89-0.49,1.56-3.17,2.04-5.05c-1.44,0.76-0.95,3.43-2.04,4.54c1.21-7.31,1.7-13.42,4.6-19.7c-0.32-2.21-3.68-1.41-4.09-3.53
			c1.91,0.86,0.81-0.3,2.56-0.51c-2.54-5.51,6.32-6.31,7.66-11.11c-0.63-1.06-1.41-1.97-2.04-3.03c-0.18-1.56,1.18-2.41,0-3.53
			c9.37-2.95,8.1-23.63,21.45-17.68c6.04-4.61,17.6,0.08,24.53,1.01c0.83,1.47,7.23,1.91,9.71,1.51c-0.08-0.93-1.73-0.31-2.05-1.01
			c2.47-2.31,9.98-1.8,14.82-2.02c-1,2.79,6.82,2.8,5.11,5.05c4.03-0.09,4.54-1.3,8.17,0c-1.08,2.27,1.16,2.26,0,4.04
			c2.4,3.49,7.45,1.93,10.73,2.03c-2.48-2.26,0.66-2.13-3.57-2.53c2.24-1.36,6.24-0.13,8.17,0.5c0.22,1.06-0.35,1.34-0.51,2.03
			c0.92-1.91,1.23,0.35,2.55,0.5c3.29,0.38,7.35-1.13,10.22-2.02c-0.37-0.47-0.93-0.76-1.53-1.01c3.38-1.98,4.49,3.41,7.15,5.05
			c1.06-0.13,0.14-2.22,1.02-2.52c0.32,0.58,0.26,1.32,1.54,2.02c0.24,1.07-0.73,0.96-1.54,1.01c1.48,2.97,0.56,5.44,2.56,8.08
			c1.88,0.58,4.25-0.44,3.06,1.01c3.57-1.76,4.47,2.36,7.67,2.52c1.38-0.45-1.08-1.22-1.54-1.51c2.83-1.18,4.96,3.83,3.07,5.55
			c-1.53-0.33,0.49-1.08,0-2.02c-2.51,0.44-1.11,3.67-0.51,5.05c-0.84,1.72-1.74,3.23-2.56,2.53c-1.23,6.95,0.85,8.43,3.58,13.64
			C173.19,119.36,174.07,119.91,175.76,120.62z M114.45,81.73c-6.27-3.29-7.07,3.87-9.2,7.57c1.54-0.51,0.91,1.13,1.02,2.02
			C111.48,92.44,112.98,85.95,114.45,81.73z"/>
		<path fill="#A1A1A1" d="M147.88,172.79c-2.06,0.93-2.1-2.05-2.78-3.69c-0.17,0-0.34,0-0.51,0c1.76-3.31,6.3-3.869,10.73-4.54
			c-0.12,4.54,3.68,2.141,5.62,2.021c2.23-0.14,4.64,1.1,6.64,1.51c5.58,1.141,10.7,3.96,7.67,12.12c0.05-1.69,1.02-2.67-0.52-3.53
			c-0.12,0.891-0.88,1.15-2.04,1.011c1.12,5.25-3.26,8.619-6.13,12.63c-2.69,0.689-9.04,0.399-6.13,2.52
			c-0.4,0.12-1.01,0.021-1.02,0.51c-2.89,0.17-2.83,3.271-3.58,5.551c0.73,1.47,0.39,0.569-1.02,0.51
			c-8,6.89-19.11,0.859-19.93-6.57C133.9,183.99,140.73,176.63,147.88,172.79z"/>
		<path fill="#A1A1A1" d="M175.25,185.27c0,0.16,0,0.33,0,0.5c-2.11,1.28-3.34,3.431-5.11,5.051
			C170.93,188.07,173.29,186.87,175.25,185.27z"/>
		<path fill="#8293A9" d="M174.73,153.95c1.56,1.58-2.39,1.99-1.53,4.55c-1.78-0.15,0.04-1.37-1.02-1.52
			C173.28,156.22,174.05,155.12,174.73,153.95z"/>
		<path fill="#767E89" d="M174.73,78.19c-1.5,0.43-3.32-1.37-2.04-2.02C173.59,76.63,174.27,77.3,174.73,78.19z"/>
		<path fill="#8B8D92" d="M165.03,85.77c2.98,3.79,6.52,4.73,8.68,8.58c-2.13-0.58-4.17-1.26-6.64-1.51
			c0.56-2.5-2.91-3.08-1.53-6.06c-0.34,0-0.68,0-1.02,0C164.61,86.37,165.03,86.27,165.03,85.77z"/>
		<path fill="#767E89" d="M169.11,72.13c1.41,0.96,2.6,2.14,3.58,3.53c-2.54-1.81-7.58-4.75-9.2-9.09c0.44-0.09,0.49,0.2,0.51,0.51
			C164.88,69.58,167.35,70.5,169.11,72.13z"/>
		<path fill="#8B8D92" d="M169.11,72.13c-1.76-1.63-4.23-2.55-5.11-5.05C165.92,68.55,167.62,70.23,169.11,72.13z"/>
		<path fill="#767E89" d="M159.41,193.35c2.44,0.44,6.23-0.439,6.64,2.021c-1.47,2.25-4.63,2.83-7.15,4.04
			c1.22-2.57-2.52,0.78-3.07-0.51C156.58,196.62,156.52,193.52,159.41,193.35z"/>
		<path fill="#84B6AC" d="M158.9,117.59c0.29,4.07,6.75,9.5,4.08,15.15c-2.34,1.24-7.79,5.18-4.08,5.05c0,0.5,0,1.01,0,1.51
			c-0.66-0.02-0.71-0.64-1.54-0.5c-3.15,6.84-4.08,17.92-14.81,15.66c-0.96,0.74-1.36,2.021-3.07,2.021
			c-0.2-0.87,0.76-1.301,0-1.521c-1.83,3.07-4.7,5.12-7.15,7.58c-1.4-0.37-1.03,1-2.05,1.01c-1.27,0.931-2.88,1.53-3.57,3.03
			c-2.32,1.24-4.14,2.979-6.64,4.04c-4.29,2.71-10.6-1.17-13.29,4.04c3.29,0.71,4.91-2.87,7.16-1.521
			c-2.79,1.19-5.98,3.931-8.69,1.011c-0.75-1.271-1.81-2.25-2.04-4.04c7.68,0.35,14.34-0.42,19.41-4.04
			c2.39-1.7,3.97-4.99,6.13-6.561c0.67-0.49,1.24,0.24,1.53,0c2.83-2.31,5.65-5.91,5.11-9.6c4.42-1.2,9.09-6.36,6.13-11.62
			c1.4-0.8,2.53-1.88,4.09-2.52c0.13-2.66-0.35-4.71-1.02-6.57c2,0.3,2.97-0.43,4.09-1.01c1.31-6.58,0.27-10.76,4.08-14.65
			c-1.06-3.39-3.84-7.56-2.04-12.12c-0.4,2.85,0.51,7.16,4.09,7.58c-0.27,0.75-0.76,1.27-1.02,2.02c1.65,0.62,0.39-1.63,2.04-1.01
			c0.39-5.27-2.27-7.52-5.11-9.6c-1.56-1.82-1.53-2.95-2.55-4.54c-11.92-0.51-13.83,8.89-21.97,12.12c0.45,1.23-2.78,4.36-0.51,5.55
			c-0.47,0.89-1.6,1.12-3.07,1.02c-0.34,0-0.68,0-1.02,0c-5.1-1.37-12.09-3.54-18.39-2.03c-0.34,0-0.69,0-1.03,0
			c-4.33,0.15-7.81,1.91-11.75,1.01c0-0.16,0-0.33,0-0.5c-1.39-0.37-1.02,1-2.04,1.01c-1.6,0.44-2.82,1.25-3.58,2.53
			c-3.05,0.64-4.86,2.4-8.17,1.51c0.63-1.43,0.63-3.12,0-4.55c3.61-1.98,9.5-1.71,13.28-3.53c-1.16-1.9-2.53-1.97-1.53-5.05
			c-5.23-3.43-11.94,1.94-15.33,5.05c-3.38-1.85-8.99-2.63-14.3-1.01c0.3-1.04,0.79-1.91,2.55-1.52c-4.34-2.53-7.63-0.08-7.15-7.07
			c2.48,0.32,0.1,2.8,2.04,3.03c0.71-0.57-1.08-2.94-1.02-4.54c-5.22,2.06-0.91,5.72-1.02,10.6c-3.79,2.32-8.39,3.83-8.18,10.11
			c-4.14,2.15-7.5,10.03-8.17,15.65c-1.16,9.68,5.72,14.64,12.26,18.69c4.98,0.21,9.06-0.47,12.77-1.51
			c0.96,4.319,0.28,7.029,1.03,12.619c-0.52,0-1.03,0-1.54,0c-1.29-1.579-2.72-3.029-2.55-6.06c-5.5-4.46-18.35-1.24-19.42-8.58
			c-0.5,1.54-1.36-0.59-2.04-0.51c-1.86-2.03-3.54-4.25-3.58-8.08c0.06-0.62,0.16-1.2,1.03-1.01c-1.01-3.36,1.48-6.37,1.53-9.09
			c0.05-2.85-1.69-4.44-1.02-7.07c1.72-6.79,10.98-7.79,13.28-15.16c-5.88-8.69,3.05-15.21,9.71-17.67
			c0.74-9.72,8.52-14.57,18.9-13.14c0.87,2.01,1.89,3.86,4.09,4.55c2.65-2.64,7.06,0.87,9.71,1.52c0.54-0.48,0.15-1.87,1.53-1.52
			c0.2,0.87-0.76,1.3,0,1.52c0.05-0.7,1.99-1.98,2.04-1.01c-0.04,0.79-1.3,0.39-1.02,1.51c1.39,0.37,1.03-1,2.04-1.01
			c-0.09,1.73,1.73-0.04,2.05,2.02c1.41,6.43,11.12,8.27,8.17,19.7c1.76,0.22,2.87-0.2,4.09-0.51c0.58-13.39,15.53-6.61,22.48-13.13
			c0.6,1.32-1.58,2.17,0.51,2.02c1.53-4.21,2.44-9.04,8.69-8.58c2.05,1.67,2.48,4.94,3.06,8.08c9.2,0.24,15.87,8.8,15.84,15.65
			C161.44,112.17,158.67,114.49,158.9,117.59z M153.28,115.57c0.62,6.29,5.73,10.94,2.55,15.65
			C161.24,126.76,153.63,118.95,153.28,115.57z M109.85,107.99c-1.93,0.73-0.98-1.39-2.56-1.01c-0.86,2.09-2.11,0.85-3.06,3.03
			c1.49-0.13,1.57,1.14,3.06,1.01C107.82,109.69,109.32,109.32,109.85,107.99z M75.11,96.37c3.49,0.34,2.89-3.49,5.11-0.5
			c-1.94-7.22-4.95-17.6-13.8-11.11c1.99-0.68,2.65,0.26,4.09-0.51c-0.13,1.47,0.96,1.74,1.53,2.53c-0.58,1.64-2.27,2.5-2.04,2.52
			c-0.86,4.37-2.46,12.38-6.65,15.15c-0.44,1.63,1.33,1.05,1.54,2.02c-1.39-0.28-3.97-0.65-2.51-1.73c0.16-0.08,0.31-0.17,0.46-0.29
			c-0.18,0.1-0.34,0.2-0.46,0.29c-2,0.96-4.88-0.88-5.67-0.29c3.36,1.06,5.91,2.92,10.22,3.03c0.55-1.47,1.41-2.64,3.58-2.52
			C71.15,100.69,75.24,98.86,75.11,96.37z M70,107.48c-1.81-0.05,1.08-1.67-0.51-1.51c-0.14,1.04-2.27,0.12-2.05,1.51
			C68.35,107.18,69.56,108.96,70,107.48z"/>
		<path fill="#767E89" d="M160.94,65.06c0.09,1.93-0.42,0.18-1.53,0.5c0-0.67,0-1.34,0-2.02C160.14,63.83,160.65,64.33,160.94,65.06
			z"/>
		<path fill="#6A6B6F" d="M157.36,209c-0.01,0-0.01,0-0.02,0c-3.92,0.34-9.18-0.66-12.24,0.51c-0.41,0.101-0.51,0.51-1.02,0.5
			c-0.34,0-0.68,0-1.02,0c0.04-2.26-1.9,0.311-3.58-0.5c-0.79-1.8,1.74-0.3,1.53-1.52c-2.8-0.46,1.28-0.92,1.54-1.51
			c0.68,0,1.36,0,2.04,0c3.56-0.49,3.63,2.47,7.66,1.51C154.02,208.26,157.1,207.24,157.36,209z"/>
		<path fill="#D2D2D3" d="M145.1,209.51c3.06-1.17,8.32-0.17,12.24-0.51C153.62,209.67,149.54,209.87,145.1,209.51z"/>
		<path fill="#84B592" d="M155.83,131.22c3.18-4.71-1.93-9.36-2.55-15.65C153.63,118.95,161.24,126.76,155.83,131.22z"/>
		<path fill="#84B592" d="M150.72,100.41c2.84,2.08,5.5,4.33,5.11,9.6c-1.65-0.62-0.39,1.63-2.04,1.01
			c0.26-0.75,0.75-1.27,1.02-2.02c-3.58-0.42-4.49-4.73-4.09-7.58C150.72,101.09,150.72,100.75,150.72,100.41z M154.81,107.48
			c-0.59-1.6-0.77-3.62-2.56-4.04C152.22,105.67,153.48,106.61,154.81,107.48z"/>
		<path fill="#84B6AC" d="M152.25,103.44c1.79,0.42,1.97,2.44,2.56,4.04C153.48,106.61,152.22,105.67,152.25,103.44z"/>
		<path fill="#767E89" d="M152.25,207.99c-4.03,0.96-4.1-2-7.66-1.51c0.03-0.311,0.08-0.601,0.51-0.511c1.02,0,2.05,0,3.07,0
			C150.06,206.12,151.68,206.54,152.25,207.99z"/>
		<path fill="#8B8D92" d="M150.72,63.04c0.12,0.72,0.84,0.85,1.02,1.51c-1.06-0.28-1.65-1.44-2.55-0.5
			c1.26,6.27-5.42,4.55-7.67,2.52c1.73-0.31,0.48-3.57,1.54-4.54c-0.71-0.02-1.12,0.24-1.54,0.5c0.16-1.36,2.15-0.9,2.56-2.02
			c-0.2-0.26-2.48-0.75-1.02-1.01C146.22,60.08,148.26,61.77,150.72,63.04z"/>
		<path fill="#A0CD94" d="M150.72,100.41c0,0.34,0,0.68,0,1.01c-1.8,4.56,0.98,8.73,2.04,12.12c-3.81,3.89-2.77,8.07-4.08,14.65
			c-1.12,0.58-2.09,1.31-4.09,1.01c-2.79,0.24-2.69-2.39-4.09-3.53c1.67-5.96-2.01-10.28,2.05-15.16c0.55,0.13,0.34,1.01,1.02,1.01
			c-0.38-3.8,1.79-8.46-1.53-9.59c-2.28-0.77-12.64,6.54-13.8,8.08c-1.18,1.58-1.37,5.38-4.09,5.56c-1.02,0.17-1.59-0.11-1.53-1.01
			c1.47,0.1,2.6-0.13,3.07-1.02c-2.27-1.19,0.96-4.32,0.51-5.55c8.14-3.23,10.05-12.63,21.97-12.12
			C149.19,97.46,149.16,98.59,150.72,100.41z"/>
		<path fill="#A1A1A1" d="M145.1,205.97c-0.77-1.37,7.1-1.35,3.07,0C147.15,205.97,146.12,205.97,145.1,205.97z"/>
		<path fill="#84B592" d="M144.59,129.2c0.67,1.86,1.15,3.91,1.02,6.57c-1.56,0.64-2.69,1.72-4.09,2.52
			c-0.72-0.04-1.44-0.08-1.53,0.51c-0.41-0.1-0.51-0.51-1.02-0.51c-0.44-2.84-1.9-4.66-2.98-6.88c-0.01-0.01-0.01-0.01-0.01-0.02
			c-0.03-0.1-0.06-0.16-0.08-0.17c0.39-1.81,2.45-1.95,3.58-3.03c-0.04-1.88-0.76-1.63,0.51-2.52c0.17,0,0.34,0,0.51,0
			C141.9,126.81,141.8,129.44,144.59,129.2z M139.48,132.74c-1.62-1.77,1.8-2.45,0-4.04c-2.56,0.66-2.12,4.55-1.02,5.05
			c0.08-0.6-0.09-1.44,0.51-1.52C139,132.54,139.05,132.83,139.48,132.74z"/>
		<path fill="#D2D2D3" d="M143.06,210.01c0.34,0,0.68,0,1.02,0c-1.93,1.3-3.11,3.33-4.6,5.061c-0.17,0-0.34,0-0.51,0
			c0-0.17,0-0.34,0-0.511c1.69-0.85,2.36-2.72,3.58-4.04C142.98,210.61,143.03,210.32,143.06,210.01z"/>
		<path fill="#C0C782" d="M142.04,101.93c3.32,1.13,1.15,5.79,1.53,9.59c-0.68,0-0.47-0.88-1.02-1.01
			c-4.06,4.88-0.38,9.2-2.05,15.16c-0.17,0-0.34,0-0.51,0c-0.02-0.7,0.24-1.11,0.51-1.52c-1.94-0.1-1.77-2.29-2.55-3.53
			c-7.04,0.8-6.87-8.26-13.8-4.55c0-0.17,0-0.34,0-0.5c2.72-0.18,2.91-3.98,4.09-5.56C129.4,108.47,139.76,101.16,142.04,101.93z
			 M130.8,112.53c1.96-0.58,2.88-2.19,4.59-3.03C133.03,109.69,131.88,111.08,130.8,112.53z"/>
		<path fill="#8B8D92" d="M139.48,209.51c1.68,0.811,3.62-1.76,3.58,0.5c-0.03,0.311-0.08,0.601-0.51,0.51
			c-0.72-1.47-1.76,0.9-3.07,0.5c-1.16-0.699-1.98-1.739-3.06-2.52C137.91,208.37,137.99,209.64,139.48,209.51z"/>
		<path fill="#A1A1A1" d="M139.48,211.02c1.31,0.4,2.35-1.97,3.07-0.5c-1.22,1.32-1.89,3.19-3.58,4.04c-0.17,0-0.34,0-0.51,0
			c-1.22-0.84-5.94-0.84-7.15,0c-0.44-0.09-0.49,0.2-0.51,0.511c-0.17,0-0.34,0-0.52,0c-2.84-3.7-5.54-7.53-7.75-11.86
			c0-0.02-0.01-0.04-0.02-0.06c-0.6-1.471-1.21-2.92-1.91-4.28c0.6-1.021-0.52-3.601-2.07-4.01c-0.9-0.45-1.58-1.13-2.04-2.021
			c1.32-0.229,5.31,2.23,7.15-0.5c0.17,0,0.34,0,0.51,0c0.81,1.891,2.42,2.99,3.07,5.05c0.4,2.971,1.55,5.2,3.06,7.07
			c-0.16,1.18-0.8,1.89-0.51,3.53c-1.04,0.29-1,1.52-2.04,0.51c-0.2,1.25,2.58,3.65,1.53,2.52c-0.74-1.56,0.09-1.96,1.02-3.029
			c0.22,1.13,2.52,0.21,3.58,0.51c0.85,0,1.7,0,2.56,0C137.5,209.28,138.32,210.32,139.48,211.02z"/>
		<path fill="#A0CD94" d="M141.52,138.29c2.96,5.26-1.71,10.42-6.13,11.62c0.54,3.689-2.28,7.29-5.11,9.6
			c-0.29,0.24-0.86-0.49-1.53,0c-2.16,1.57-3.74,4.86-6.13,6.561c-5.07,3.62-11.73,4.39-19.41,4.04
			c-0.75,0.279-2.64-0.591-2.56,0.51c1.03-0.17,1.6,0.1,1.53,1.01c-1.84-0.53-2.82-1.92-4.08-3.03c1.82,0.21,2.72,1.341,5.11,1.011
			c-0.44-1.091-2.24-0.82-3.07-1.521c7.81,0.43,17.28-1.609,23.5-6.06c0.96-0.61,2.37,0.239,3.07-1.511
			c-0.12-1.97,1.1-2.619,1.53-4.039c-3.24-10.98,10.43-9.081,10.73-18.19c0.51,0,0.61,0.41,1.02,0.51
			C140.08,138.21,140.8,138.25,141.52,138.29z"/>
		<path fill="#8B8D92" d="M147.66,75.16c-5.74,2.45-10.16,3.03-13.8-1.01c0.05-0.57-0.74-0.79,0-1.01
			C138,70.74,143.35,72.64,147.66,75.16z"/>
		<path fill="#767E89" d="M141.01,207.99c0.21,1.22-2.32-0.28-1.53,1.52c-1.49,0.13-1.57-1.14-3.06-1.01c-0.86,0-1.71,0-2.56,0
			c-2.03-0.52-2.32-2.76-3.58-4.04c-1.51-1.87-2.66-4.1-3.06-7.07c0.68,0.33,0.95,1.08,1.02,2.021c1.57,0.37,0.98-1.391,2.56-1.01
			c-1.72-3.9-1.46-7.29-2.56-11.11c-3.56,0.65-4.54-1.24-7.66-1.01c0.14,3.05,2.49,3.93,3.57,6.06c-0.17,0-0.34,0-0.51,0
			c-0.99-2.39-5.6-1.2-5.11-5.05c2.32-3.47,5.57-6.88,2.56-11.62c3.47-2.45,7.89-3.08,9.71-8.08c0.34,0,0.68,0,1.02,0
			c0.6,1.59,2.65,1.76,3.57,3.03c-1.7-0.54-1.74,0.16-3.57-0.51c-1.31,2.649-0.3,6.909,3.06,6.569c0.03-1.66,1.46-1.93,1.02-4.04
			c1.7,1.74,2.51,5.141,1.54,8.08c-0.96,0.4-1.87,0.84-3.07,1.011c-0.87,8.5-5.46,24.59,8.18,24.75
			C142.29,207.07,138.21,207.53,141.01,207.99z M130.28,182.24c1.26-1.29,1.34-4.7,0.52-6.57c-6.46-1.689-10.23,2.16-5.62,7.07
			C126.91,182.6,128.11,181.94,130.28,182.24z"/>
		<path fill="#C9AD5D" d="M67.94,115.3c0.47,0.37,1.4,0.74,1.86,1.08C69.41,116.03,68.76,115.65,67.94,115.3z M67.93,115.3
			c-0.34-0.26-0.44-0.51,0.02-0.74c1.28,1.26,4.24,2.98,3.58,4.54c1.87-1.04,2.06,0.89,4.6,0.51c2.73,0.17,4.2-0.9,6.13-1.52
			c-1.16,1.91,2.33,2.9,5.11,2.53c-1.32,5.57-8.07,7.69-5.62,14.14c1.6,0.24,2-0.72,3.06-1.01c-0.01-0.49-0.62-0.39-1.02-0.51
			c0.06-1.23,1.69-0.1,1.53,0.51c8.55-4.18,23.26-2.26,29.13-9.09c5.85,0.97,8.36-1.46,7.15-6.57c1.66,0.13,2.46-0.6,2.55-2.02
			c6.93-3.71,6.76,5.35,13.8,4.55c0.78,1.24,0.61,3.43,2.55,3.53c-0.27,0.41-0.53,0.82-0.51,1.52c-1.27,0.89-0.55,0.64-0.51,2.52
			c-1.13,1.08-3.19,1.22-3.58,3.03c0.03,0.06,0.05,0.12,0.08,0.17c0,0.01,0,0.01,0.01,0.02c0.32,1.09,1.04,6.45,1.45,6.38
			c-0.34,2.03-3.6,5.53-5.11,8.08c-7.58-0.25-10.01,7.92-7.67,13.13c-7.11,1.8-18.89,7.09-26.05,4.55
			c-1.61,0.71-1.32,3.86-1.53,4.54c-2.63-0.399-3.36,1.07-5.62,1.01c-1.52-0.869-5.26-2.18-7.16-1.01c-0.34,0-0.68,0-1.02,0
			c-0.16-0.68-1.28-0.42-2.04-0.5c0.57-0.729,0.55-1.229-0.51-1.52c1.38-2.38,0.82-7.09-1.54-8.58c0.08,1.95,1.73,2.33,1.54,4.54
			c-0.98,0.95-0.93-0.3-2.56,0c-0.49,0.939,1.53,1.689,0,2.02c-1.57-1.33-0.34-1.7,0.51-3.03c-2.15-1.069-4.25-2.189-5.11-4.539
			c3.09-0.66,2.2-3.351,4.6-1.521c1.9-1.3-1.85-2.43-0.51-3.03c1.81,1.641,1.34-2.03,3.07-2.02c0.81-2.8-1.88-11.12-2.05-7.58
			c-0.98-1.22-2.89-1.51-3.57-3.03c1.46,0.78,3.55,1.24,4.08,0.51c-1.59-0.13-3.59-1.48-6.64-1.52c-2.66,0.73-1.42,3.07-3.57,3.54
			c1.01-2.16-1.46-3.49-1.54-6.06c1.27-0.08,1.58,0.79,2.56,1.01c-1.68-2.27-7.89-4.1-4.6-8.08c0.94-0.76,1.79-1.6,2.55-2.53
			c0.75-0.44,1.62-0.75,1.54-2.02c-1.71-0.54-2-3.33-0.51-3.03c-2.81-2.09-9.38,1.07-13.8,3.03c-0.91-1.73,0.51-2.99-0.33-4.29
			c0.29-0.12,0.58-0.21,0.84-0.25C55.59,112.64,63.82,113.56,67.93,115.3z M133.86,138.29c0.1,0.76-1.29,2.9,0.51,3.03
			c0-6.73-3.47-10.04-4.09-16.16c0.71,1.27,3.03-1.26,2.05-1.51c-0.14,0.71-1.12,0.57-1.53,1.01c-1.06-2.57,0.32-2.99,1.53-3.03
			c-1.74-1.35-3.14,1.01-4.6,1.51c0-0.18,0.41-1.01,0.51-1.01c-4.58,0.05-4.82,11.07-7.66,14.14c-1.37,0-2.73,0-4.09,0
			c-0.85-0.06-0.17-4.13-1.02-2.52c-1.07,6.03-8.69,7.08-13.8,7.57c-1.05-2.35-0.4-3.86-0.51-7.57c-1.84-0.3-3.42-0.85-5.11,0
			c0.2,7.94-6.7,7.86-11.75,7.07c0.48,3.06,4.56,2.56,4.6,6.06c-0.82,0.71-1.3,1.74-1.53,3.03c2.33,1.41,2.75-1.04,5.62-0.5
			c1.17,0.85,2.71,1.36,3.57,2.52c0.24,4.71-2.18,5.57-1.53,9.09c2.37-0.069,2.9-2.729,5.11-1.51c0.96-0.89-0.7-1.569,1.02-2.02
			c4.26-0.67,5.94,1.2,8.18,2.52c2.95-2.33,8.13-7.88,12.26-3.029c0.69-4.551-2.34-5.44-1.53-10.101
			C123.35,142.72,127.86,139.77,133.86,138.29z M71.53,123.65c1.33,1.34,4.84-1.38,3.58-2.53
			C74.27,122.31,72.47,122.56,71.53,123.65z"/>
		<path fill="#A0CD94" d="M139.48,128.7c1.8,1.59-1.62,2.27,0,4.04c-0.43,0.09-0.48-0.2-0.51-0.51c-0.6,0.08-0.43,0.92-0.51,1.52
			C137.36,133.25,136.92,129.36,139.48,128.7z"/>
		<path fill="#6A6B6F" d="M138.97,214.56c0,0.171,0,0.341,0,0.511c-2.72,0-5.45,0-8.17,0c0.02-0.311,0.07-0.601,0.51-0.511
			c2.38,0,4.77,0,7.15,0C138.63,214.56,138.8,214.56,138.97,214.56z"/>
		<path fill="#8B8D92" d="M138.46,214.56c-2.38,0-4.77,0-7.15,0C132.52,213.72,137.24,213.72,138.46,214.56z"/>
		<path fill="#D2D2D3" d="M134.37,50.92c1.9,1.15,4.94,1.18,6.64,2.52c-3.53-0.89-6.96-1.87-10.73-2.52
			C131.65,50.92,133.01,50.92,134.37,50.92z"/>
		<path fill="#C0C782" d="M135.99,131.41c1.08,2.22,2.54,4.04,2.98,6.88c-0.3,9.11-13.97,7.21-10.73,18.19
			c-0.43,1.42-1.65,2.069-1.53,4.039c-1.32-1.239-2.46,0.54-3.07,1.511c-6.22,4.45-15.69,6.489-23.5,6.06
			c0.83,0.7,2.63,0.43,3.07,1.521c-2.39,0.33-3.29-0.801-5.11-1.011c-0.6,0.08-0.91-0.109-1.02-0.51c0.21-0.68-0.08-3.83,1.53-4.54
			c7.16,2.54,18.94-2.75,26.05-4.55c-2.34-5.21,0.09-13.38,7.67-13.13c1.51-2.55,4.77-6.05,5.11-8.08
			C137.03,137.86,136.31,132.5,135.99,131.41z"/>
		<path fill="#C9AD5D" d="M135.98,131.39c-0.03-0.05-0.05-0.11-0.08-0.17C135.92,131.23,135.95,131.29,135.98,131.39z"/>
		<path fill="#6A6B6F" d="M135.9,172.64c0.44,2.11-0.99,2.38-1.02,4.04c-3.36,0.34-4.37-3.92-3.06-6.569
			c1.83,0.67,1.87-0.03,3.57,0.51C135.36,171.5,135.51,172.19,135.9,172.64z"/>
		<path fill="#E37D2B" d="M134.37,141.32c-1.8-0.13-0.41-2.27-0.51-3.03c-6,1.48-10.51,4.43-13.79,8.59
			c-0.81,4.66,2.22,5.55,1.53,10.101c-4.13-4.851-9.31,0.699-12.26,3.029c-2.24-1.319-3.92-3.189-8.18-2.52
			c-1.72,0.45-0.06,1.13-1.02,2.02c-2.21-1.22-2.74,1.44-5.11,1.51c-0.65-3.52,1.77-4.38,1.53-9.09c-0.86-1.16-2.4-1.67-3.57-2.52
			c-2.87-0.54-3.29,1.91-5.62,0.5c0.23-1.29,0.71-2.32,1.53-3.03c-0.04-3.5-4.12-3-4.6-6.06c5.05,0.79,11.95,0.87,11.75-7.07
			c1.69-0.85,3.27-0.3,5.11,0c0.11,3.71-0.54,5.22,0.51,7.57c5.11-0.49,12.73-1.54,13.8-7.57c0.85-1.61,0.17,2.46,1.02,2.52
			c1.36,0,2.72,0,4.09,0c2.84-3.07,3.08-14.09,7.66-14.14c-0.1,0-0.51,0.83-0.51,1.01c1.46-0.5,2.86-2.86,4.6-1.51
			c-1.21,0.04-2.59,0.46-1.53,3.03c0.41-0.44,1.39-0.3,1.53-1.01c0.98,0.25-1.34,2.78-2.05,1.51
			C130.9,131.28,134.37,134.59,134.37,141.32z"/>
		<path fill="#C9AD5D" d="M135.39,109.5c-1.71,0.84-2.63,2.45-4.59,3.03C131.88,111.08,133.03,109.69,135.39,109.5z"/>
		<path fill="#8B8D92" d="M133.86,208.5c-1.06-0.3-3.36,0.62-3.58-0.51c-0.93,1.069-1.76,1.47-1.02,3.029
			c1.05,1.131-1.73-1.27-1.53-2.52c1.04,1.01,1-0.22,2.04-0.51c-0.29-1.641,0.35-2.351,0.51-3.53
			C131.54,205.74,131.83,207.98,133.86,208.5z"/>
		<path fill="#8B8D92" d="M130.8,175.67c0.82,1.87,0.74,5.28-0.52,6.57c-2.17-0.3-3.37,0.359-5.1,0.5
			C120.57,177.83,124.34,173.98,130.8,175.67z"/>
		<path fill="#6A6B6F" d="M130.8,198.4c-1.58-0.381-0.99,1.38-2.56,1.01c-0.07-0.94-0.34-1.69-1.02-2.021
			c-0.65-2.06-2.26-3.159-3.07-5.05c-1.08-2.13-3.43-3.01-3.57-6.06c3.12-0.23,4.1,1.66,7.66,1.01
			C129.34,191.11,129.08,194.5,130.8,198.4z"/>
		<path fill="#D2D2D3" d="M130.28,215.07c-0.17,0-0.34,0-0.51,0c-3.66-2.7-5.39-7.351-7.24-11.86
			C124.74,207.54,127.44,211.37,130.28,215.07z"/>
		<path fill="#FFFFFF" d="M129.77,215.07c-41.72,0-83.45,0-125.17,0c0-24.58,0-49.17,0-73.75c1.56,2.67,1.49,6.95,3.07,9.6
			c1.42,5.42,5.25,13.061,12.26,16.16c2.94,1.31,7.57,1.21,11.75,2.53c1.81,0.569,3.48,1.38,5.11,2.08c0,0.149,0,0.3,0,0.439
			c1.07,0.57,2.22,0.79,3.38,0.76c2.62,0.63,5.28,0.36,8.37-2.27c0.43,0.09,0.48-0.2,0.51-0.51c0.41,0.1,0.51,0.51,1.02,0.51
			c3.47,0.61,4.08,4.04,5.11,7.07c0,0.17,0,0.34,0,0.51c0.07,9.68,16.55,16.8,27.59,18.18c5.31,0.66,8.68-0.16,11.41-1.56
			c0.01,0,0.02-0.011,0.03-0.011c0.29-0.13,0.57-0.279,0.82-0.449c0.01,0,0.01-0.011,0.02-0.021c2.9-1.68,5.19-3.939,8.67-5.54
			c0.34,0,0.68,0,1.02,0c0.17,0,0.34,0,0.51,0c3.81,3.25,8.51,2.09,11.75,5.05c0.69,0.631,1.3,1.341,1.86,2.11
			c0.4,1.15,0.97,2.14,1.72,2.94c0.58,1.47,1.23,2.89,1.93,4.25c0.01,0.02,0.02,0.04,0.02,0.06
			C124.38,207.72,126.11,212.37,129.77,215.07z"/>
		<path fill="#7399AB" d="M130.28,163.55c-0.58,1.61-2.14,2.25-3.57,3.03C127.4,165.08,129.01,164.48,130.28,163.55z"/>
		<path fill="#8B8D92" d="M129.26,69.1c-2.22-1-3.7,2.6-6.64,2.52c-0.49,1.84,2.3,0.43,2.04,2.02c-0.47-0.31-1.88-1.17-1.53,0.51
			c1.36,0,2.73,0,4.09,0c-1.79,1.07-6.44,0.65-7.66-0.51c1.87-1.69-1.91-3.2,0.51-3.53c-2.38-3.85-11.06-0.9-14.82-1.52
			C113.02,66.35,127.96,58.09,129.26,69.1z"/>
		<path fill="#8B8D92" d="M130.8,167.59c-1.82,5-6.24,5.63-9.71,8.08c3.01,4.74-0.24,8.15-2.56,11.62
			c-0.49,3.85,4.12,2.66,5.11,5.05c-1.84,2.73-5.83,0.271-7.15,0.5c-3.45-1.64-7.69-2.5-11.24-4.04c-0.17,0-0.34,0-0.51,0
			c1.01-0.609-0.13-1.74-0.51-0.5c-1.03-4.729,5.1-6.74,7.66-9.6c0.88,0.02,1.33-0.38,1.53-1.01c1.91-1.341,3.02-0.36,6.14-0.511
			c0.21-1.72-1.53-1.51-2.05-2.52C123.22,173.57,127.16,170.73,130.8,167.59z M107.29,183.25c1.43,0.53,6.99-0.21,5.11-3.04
			C110.1,180.64,109.07,182.31,107.29,183.25z"/>
		<path fill="#D2D2D3" d="M123.64,162.03c0.61-0.971,1.75-2.75,3.07-1.511C126.01,162.27,124.6,161.42,123.64,162.03z"/>
		<path fill="#A1A1A1" d="M124.15,115.57c0,0.16,0,0.33,0,0.5c-1.24,0.29-2.62,0.43-2.55,2.02c-0.31-0.03-0.61-0.07-0.51-0.5
			c-0.22-0.97-1.1-1.27-1.02-2.53c0.6-0.08,1.45,0.09,1.53-0.5c0.34,0,0.68,0,1.02,0C122.56,115.46,123.13,115.74,124.15,115.57z"/>
		<path fill="#84B592" d="M124.15,116.07c-0.09,1.42-0.89,2.15-2.55,2.02C121.53,116.5,122.91,116.36,124.15,116.07z"/>
		<path fill="#C0C782" d="M121.6,118.09c1.21,5.11-1.3,7.54-7.15,6.57c-5.87,6.83-20.58,4.91-29.13,9.09
			c0.16-0.61-1.47-1.74-1.53-0.51c0.4,0.12,1.01,0.02,1.02,0.51c-1.06,0.29-1.46,1.25-3.06,1.01c-2.45-6.45,4.3-8.57,5.62-14.14
			c0.51-0.84,2.17-0.55,3.06-1.01c1.33,2.07-1.94,3.28-1.02,6.56c6.81,4.75,8.53-5.14,15.33-5.05c2.71,5.1,9.05,0.27,11.75,1.01
			c-1.22-2.26,1.16-3.4,2.55-4.54c0.69,0,1.37,0,2.05,0C120.99,118.02,121.29,118.06,121.6,118.09z"/>
		<path fill="#84B592" d="M121.09,117.59c-0.68,0-1.36,0-2.05,0c-4.14,0.34-7.51-2.07-11.75-3.03c-1.36,0-2.72,0-4.08,0
			c0.22-0.63,0.65-1.04,1.53-1.02c-0.12-0.72-1.53-0.17-1.53-1.01c6.3-1.51,13.29,0.66,18.39,2.03c-0.08,0.59-0.93,0.42-1.53,0.5
			C119.99,116.32,120.87,116.62,121.09,117.59z"/>
		<path fill="#D2D2D3" d="M122.51,203.15c-0.7-1.36-1.35-2.78-1.93-4.25c0.01-0.011,0.01-0.021,0.02-0.03
			C121.3,200.23,121.91,201.68,122.51,203.15z"/>
		<path fill="#8B8D92" d="M118.53,194.86c1.55,0.409,2.67,2.989,2.07,4.01c-0.52-1.03-1.1-2.01-1.74-2.91
			C118.73,195.61,118.62,195.24,118.53,194.86z"/>
		<path fill="#8B8D92" d="M120.6,198.87c-0.01,0.01-0.01,0.02-0.02,0.03c-0.75-0.801-1.32-1.79-1.72-2.94
			C119.5,196.86,120.08,197.84,120.6,198.87z"/>
		<path fill="#FFFFFF" d="M4.6,50.92c38.66,0,77.32,0,115.98,0c-0.95,0.75-2.43,0.96-4.09,1.01c-8.59-0.28-18.89-1.37-25.03,2.02
			c0,0.16,0,0.33,0,0.5c-3.48-0.41-4.57,1.55-8.18,1.01c-6.25,1.23-10.8,4.14-15.84,6.57c-0.43-0.1-0.48,0.19-0.51,0.5
			c-0.17,0-0.34,0-0.51,0c-0.31,0.7-1.97,0.08-2.04,1.01c-1.99,0.56-3.7,1.4-5.11,2.53c-2.02,1.03-4.39,1.73-6.64,2.52
			C29.72,80.8,11.74,97.88,4.6,125.67C4.6,100.75,4.6,75.83,4.6,50.92z"/>
		<path fill="#767E89" d="M117.51,174.66c0.52,1.01,2.26,0.8,2.05,2.52c-3.12,0.15-4.23-0.83-6.14,0.511
			c0.07-1.341-1.11-2.87,0.52-3.03C115.13,174.66,116.32,174.66,117.51,174.66z"/>
		<path fill="#A0CD94" d="M107.29,114.56c4.24,0.96,7.61,3.37,11.75,3.03c-1.39,1.14-3.77,2.28-2.55,4.54
			c-2.7-0.74-9.04,4.09-11.75-1.01c-6.8-0.09-8.52,9.8-15.33,5.05c-0.92-3.28,2.35-4.49,1.02-6.56c1.92-3.49,7.34-3.53,11.24-5.05
			c0.34,0,0.68,0,1.03,0c0,0.16,0,0.33,0,0.5C105.08,114.83,105.96,116.04,107.29,114.56z"/>
		<path fill="#D2D2D3" d="M118.53,194.86c0.09,0.38,0.2,0.75,0.33,1.1c-0.56-0.77-1.17-1.479-1.86-2.11
			c-3.24-2.96-7.94-1.8-11.75-5.05c3.55,1.54,7.79,2.4,11.24,4.04C116.95,193.73,117.63,194.41,118.53,194.86z"/>
		<path fill="#7399AB" d="M120.07,170.62c-1.25,2.14-4.95,1.84-6.13,4.04c-1.63,0.16-0.45,1.689-0.52,3.03
			c-0.2,0.63-0.65,1.029-1.53,1.01c-4.7,1.47-10.59,3.26-14.3,0.51c0.37-0.9,0.93-0.08,1.53,0c0.41-1.92-2.42-0.65-3.58-1.01
			c-0.38,2.28,1.4-0.78,1.02,1.51c-1.61,0.76-3.25,1.5-3.57,3.54c-4.37,2.64-12.85,2.92-15.33-1.52
			c-1.08,1.43,2.79,2.279,3.07,4.039c-2.1-1.069-0.3,1.15,0,2.021c-4.47,0.6-7.81,1.67-9.71-2.021c0.51,0,1.02,0,1.53,0
			c-0.84-2.529-2.07-4.689-3.06-7.069c0.81-0.63,1.91-0.46,3.06,0c-3.07-1.641-7.53-4.57-11.24-7.07
			c-1.08-7.52-7.85-9.41-14.3-11.62c-0.23-1.89-5.76-2.45-3.07-4.04c-0.77-1.08-1.25,0.36-2.55-0.5c-1.01-1.87-1.88-3.87-3.07-5.56
			c0.68-0.08,1.54,2.05,2.04,0.51c1.07,7.34,13.92,4.12,19.42,8.58c-0.17,3.03,1.26,4.48,2.55,6.06c1.04,1.5,2.57,2.521,4.6,3.03
			c-1.19,5.86,7.67,5.79,11.24,8.59c2.33,3.011,7.67-0.08,11.24,1.521c2.49,0.25,7.4,0.26,5.11-2.53c0-0.17,0-0.34,0-0.51
			c2.51-2.76,7.59-4.07,10.73-1.01c2.71,2.92,5.9,0.18,8.69-1.011c-2.25-1.35-3.87,2.23-7.16,1.521
			C109.47,169.45,115.78,173.33,120.07,170.62z"/>
		<path fill="#767E89" d="M112.4,180.21c1.88,2.83-3.68,3.57-5.11,3.04C109.07,182.31,110.1,180.64,112.4,180.21z"/>
		<path fill="#8293A9" d="M105.25,89.3c2.13-3.7,2.93-10.86,9.2-7.57c-1.47,4.22-2.97,10.71-8.18,9.59
			C106.16,90.43,106.79,88.79,105.25,89.3z"/>
		<path fill="#D2D2D3" d="M116.49,51.93c-6.93,0.64-15.23-0.36-22.48,1.01c-0.97,0.21-1.28,1.08-2.55,1.01
			C97.6,50.56,107.9,51.65,116.49,51.93z"/>
		<path fill="#7399AB" d="M107.29,106.98c1.58-0.38,0.63,1.74,2.56,1.01c-0.53,1.33-2.03,1.7-2.56,3.03
			c-1.49,0.13-1.57-1.14-3.06-1.01C105.18,107.83,106.43,109.07,107.29,106.98z"/>
		<path fill="#C0C782" d="M103.21,114.56c1.36,0,2.72,0,4.08,0c-1.33,1.48-2.21,0.27-4.59,0.5c0-0.17,0-0.34,0-0.5
			C102.87,114.56,103.04,114.56,103.21,114.56z"/>
		<path fill="#767E89" d="M104.23,188.3c0.38-1.24,1.52-0.109,0.51,0.5c-0.34,0-0.68,0-1.02,0c-2.14-0.42-2.42,0.98-4.09,1.01
			c-0.16-1.329,1.07-1.3,2.04-1.51c0-1.51-1.32-1.72-1.53-3.03c-5.94-1.649-5.99,4.58-10.22,3.03c-2.38,0-4.77,0-7.15,0
			c-0.63-0.569-1.05-0.439-1.02,0.5c-0.56-0.12-0.35-1-1.02-1.01c-0.3-0.87-2.1-3.09,0-2.021c-0.28-1.76-4.15-2.609-3.07-4.039
			c2.48,4.439,10.96,4.159,15.33,1.52c0.32-2.04,1.96-2.78,3.57-3.54c0.38-2.29-1.4,0.771-1.02-1.51c1.16,0.359,3.99-0.91,3.58,1.01
			c-0.6-0.08-1.16-0.9-1.53,0c3.71,2.75,9.6,0.96,14.3-0.51C109.33,181.56,103.2,183.57,104.23,188.3z"/>
		<path fill="#7399AB" d="M104.74,113.54c-0.88-0.02-1.31,0.39-1.53,1.02c-0.17,0-0.34,0-0.51,0c-0.35,0-0.69,0-1.03,0
			c-1.32-1.33,0.83-0.4,0.51-2.03c0.34,0,0.69,0,1.03,0C103.21,113.37,104.62,112.82,104.74,113.54z"/>
		<path fill="#84B592" d="M103.21,170.11c0.23,1.79,1.29,2.77,2.04,4.04c-3.14-3.061-8.22-1.75-10.73,1.01
			c-0.29-2.41-2.01-3.391-4.09-4.04c-0.02-0.69,0.24-1.11,0.51-1.51c0.32-0.03,0.61-0.08,0.52-0.511
			c2.26,0.061,2.99-1.409,5.62-1.01c0.11,0.4,0.42,0.59,1.02,0.51c1.26,1.11,2.24,2.5,4.08,3.03c0.07-0.91-0.5-1.18-1.53-1.01
			C100.57,169.52,102.46,170.39,103.21,170.11z"/>
		<path fill="#D2D2D3" d="M99.63,189.81c1.67-0.029,1.95-1.43,4.09-1.01c-3.48,1.601-5.77,3.86-8.67,5.54
			C96.79,193.04,98.32,191.53,99.63,189.81z"/>
		<path fill="#84B592" d="M102.18,112.53c0.32,1.63-1.83,0.7-0.51,2.03c-3.9,1.52-9.32,1.56-11.24,5.05
			c-0.89,0.46-2.55,0.17-3.06,1.01c-2.78,0.37-6.27-0.62-5.11-2.53c0.71-0.54,6.25-1.27,2.55-1.51c0.76-1.28,1.98-2.09,3.58-2.53
			c0.1,0.41,0.51,0.5,0.51,1.01c1.12,0.09,1.63-0.41,1.53-1.52C94.37,114.44,97.85,112.68,102.18,112.53z"/>
		<path fill="#8293A9" d="M90.92,189.39c-0.12,0.5-0.56,0.221-1-0.08c0-0.34,0-0.68,0-1.01c4.23,1.55,4.28-4.68,10.22-3.03
			c0.21,1.311,1.53,1.521,1.53,3.03c-0.97,0.21-2.2,0.181-2.04,1.51c-1.76,0.96-2.49,2.931-4.6,3.54
			c-0.96-0.119,0.29-0.83-0.51-1.01c-0.6,0.91-2.66,0.391-3.58,1.01c0.01-0.51-0.41-0.6-0.51-1.01
			C91.8,194.13,90.93,190.01,90.92,189.39z"/>
		<path fill="#8B8D92" d="M95.03,193.35c2.11-0.609,2.84-2.58,4.6-3.54c-1.31,1.721-2.84,3.23-4.58,4.53
			c-0.01,0.01-0.01,0.021-0.02,0.021C95.03,194.02,95.03,193.68,95.03,193.35z"/>
		<path fill="#8B8D92" d="M92.99,71.12c1.02,1.14,3.99-2.52,5.11,0c-2.23,1.27-5.81,2.96-8.69,2.02c0.76-0.03,2.29-2.59,2.05-0.51
			c1.78-0.26,0.74-3.3,1.02-5.05c1.02,0,2.04,0,3.06,0c0,0.84,0,1.69,0,2.53C94.87,70.62,93.66,70.6,92.99,71.12z"/>
		<path fill="#767E89" d="M95.03,193.35c0,0.33,0,0.67,0,1.011c-0.27,0.149-0.54,0.3-0.82,0.449c-0.01,0-0.02,0.011-0.03,0.011
			c-0.87,0.38-1.87,0.64-2.72,1.05c-1.01-1.83-6.88-1.09-8.69-0.5c1.13-0.73-0.64-1.24,0.51-1.521c0.3,0.61,1.93-0.33,3.07,0.511
			c0.34,0,0.68,0,1.02,0c-0.16-1.53,0.57-3.931-1.02-4.04c0.07-1.261,1.73-0.15,2.04,0c-0.1-0.41-0.51-0.511-0.51-1.011
			c0.68,0,1.36,0,2.04,0c0.44,0.301,0.88,0.58,1,0.08c0.01,0.62,0.88,4.74-0.49,2.95c0.1,0.41,0.52,0.5,0.51,1.01
			c0.92-0.619,2.98-0.1,3.58-1.01C95.32,192.52,94.07,193.23,95.03,193.35z"/>
		<path fill="#84B592" d="M94.52,175.67c2.29,2.79-2.62,2.78-5.11,2.53c0-0.51,0.42-0.61,0.51-1.021c-1.53-0.67-3.91-0.51-6.13-0.5
			c-0.2-0.72-0.61-0.85,0-1.52c2.66-0.4,6.21,0.08,6.64-2.521C93.77,170.38,92.77,178.6,94.52,175.67z"/>
		<path fill="#767E89" d="M95.03,194.36c-0.25,0.17-0.53,0.319-0.82,0.449C94.49,194.66,94.76,194.51,95.03,194.36z"/>
		<path fill="#84B6AC" d="M94.52,175.16c0,0.17,0,0.34,0,0.51c-1.75,2.93-0.75-5.29-4.09-3.03c0-0.51,0-1.01,0-1.52
			C92.51,171.77,94.23,172.75,94.52,175.16z"/>
		<path fill="#767E89" d="M94.01,52.94c0.73,1.77-2.62,3.6-2.55,1.51c0-0.17,0-0.34,0-0.5C92.73,54.02,93.04,53.15,94.01,52.94z"/>
		<path fill="#D2D2D3" d="M91.46,195.87c0.85-0.41,1.85-0.67,2.72-1.05c-2.73,1.399-6.1,2.22-11.41,1.56
			c-11.04-1.38-27.52-8.5-27.59-18.18c1.35,1.859,1.4,5.01,3.07,6.56c0.8,1.221,1.82,2.23,3.06,3.03c2.12,1.95,5.15,2.99,8.69,3.54
			c1.39,1.32,3.85,1.57,5.62,2.52c2.29,0.771,4.91,1.2,7.15,2.021C85.67,195.87,88.56,195.87,91.46,195.87z"/>
		<path fill="#C0C782" d="M91.46,169.1c0.09,0.431-0.2,0.48-0.52,0.511c-3.52,0.79-3.18-2.24-6.64-1.521
			C86.2,166.92,89.94,168.23,91.46,169.1z"/>
		<path fill="#6A6B6F" d="M91.46,195.87c-2.9,0-5.79,0-8.69,0c0-0.17,0-0.33,0-0.5C84.58,194.78,90.45,194.04,91.46,195.87z"/>
		<path fill="#A0CD94" d="M90.43,113.54c0.1,1.11-0.41,1.61-1.53,1.52c0-0.51-0.41-0.6-0.51-1.01c1.02-0.01,0.65-1.38,2.04-1.01
			C90.43,113.21,90.43,113.38,90.43,113.54z"/>
		<path fill="#A0CD94" d="M90.94,169.61c-0.27,0.399-0.53,0.819-0.51,1.51c0,0.51,0,1.01,0,1.52c-0.43,2.601-3.98,2.12-6.64,2.521
			c-0.09-0.74-1.23-0.46-2.04-0.5c-0.85,0-1.71,0-2.56,0c-0.13-0.71-1.12-0.58-1.53-1.01c-1.16-0.54-0.19-3.181-0.51-4.551
			c1.77-0.609,3.39-1.359,6.13-1.01c0.34,0,0.68,0,1.02,0C87.76,167.37,87.42,170.4,90.94,169.61z"/>
		<path fill="#8B8D92" d="M89.92,188.3c0,0.33,0,0.67,0,1.01c-0.68,0-1.36,0-2.04,0c-1.77-0.409-1.96,0.75-3.58,0.5
			c0.29,0.471,1.42,0.771,0.51,1.011c0.29,1.14,0.8-0.61,1.54,0.51c0,1.01,0,2.02,0,3.03c-1.14-0.841-2.77,0.1-3.07-0.511
			c-1.15,0.28,0.62,0.79-0.51,1.521c0,0.17,0,0.33,0,0.5c-2.24-0.82-4.86-1.25-7.15-2.021c1.61-0.76,3.8-0.949,3.06-4.04
			c1.45,1.73,2.33,1.41,5.11,1.011c0.03-1.42-2.22-1.38-1.02-2.521C85.15,188.3,87.54,188.3,89.92,188.3z"/>
		<path fill="#84B6AC" d="M89.92,177.18c-0.09,0.41-0.51,0.511-0.51,1.021c-3.57-1.601-8.91,1.49-11.24-1.521
			c-0.96-0.79,0.73-1.97-0.51-3.029c0.41,0.43,1.4,0.3,1.53,1.01c-0.09,0.41-0.51,0.5-0.51,1.01c0.43,1.09,2.24,0.811,3.07,1.51
			c1.65-1.09,0.28-1.12,0-2.52c0.81,0.04,1.95-0.24,2.04,0.5c-0.61,0.67-0.2,0.8,0,1.52C86.01,176.67,88.39,176.51,89.92,177.18z"/>
		<path fill="#A0CD94" d="M88.39,104.96c-1,3.08,0.37,3.15,1.53,5.05c-3.78,1.82-9.67,1.55-13.28,3.53c0.63,1.43,0.63,3.12,0,4.55
			c3.31,0.89,5.12-0.87,8.17-1.51c3.7,0.24-1.84,0.97-2.55,1.51c-1.93,0.62-3.4,1.69-6.13,1.52c-0.58-0.61-1.46-0.92-1.02-2.53
			c-4.08-2.34-6.04-6.35-10.73-7.07c-11.69-1.78-12.18,13.82-19.42,18.18c0.6,1.53-0.06,2.75,0.51,5.05
			c0.88-0.02,1.33,0.38,1.54,1.01c4.32-0.54,9.46-2.38,13.28-0.5c0.52,7.34,4.95,17.22,11.24,9.09c2.2,0.18,4.46,0.3,5.11,2.02
			c-0.8,2.25-3.37,4.25-5.62,3.54c0.22,0.79,1.61,0.43,1.02,2.02c-0.99,1.37-3.54,1.21-4.09,3.03c3.08,2.12,3.37,7.03,5.62,12.12
			c-2.69,1.359-7.62,1.449-9.7-0.511c-0.75-5.59-0.07-8.3-1.03-12.619c-3.71,1.04-7.79,1.72-12.77,1.51
			c-6.54-4.05-13.42-9.01-12.26-18.69c0.67-5.62,4.03-13.5,8.17-15.65c-0.21-6.28,4.39-7.79,8.18-10.11c1.27-0.42,2.74-0.66,4.6-0.5
			c5.31-1.62,10.92-0.84,14.3,1.01C76.45,106.9,83.16,101.53,88.39,104.96z"/>
		<path fill="#8293A9" d="M87.88,189.31c0,0.5,0.41,0.601,0.51,1.011c-0.31-0.15-1.97-1.261-2.04,0c1.59,0.109,0.86,2.51,1.02,4.04
			c-0.34,0-0.68,0-1.02,0c0-1.011,0-2.021,0-3.03c-0.74-1.12-1.25,0.63-1.54-0.51c0.91-0.24-0.22-0.54-0.51-1.011
			C85.92,190.06,86.11,188.9,87.88,189.31z"/>
		<path fill="#8293A9" d="M82.77,188.3c-1.2,1.141,1.05,1.101,1.02,2.521c-2.78,0.399-3.66,0.72-5.11-1.011
			c0.74,3.091-1.45,3.28-3.06,4.04c-1.77-0.949-4.23-1.199-5.62-2.52c0.8-2.32-0.19-2.36-1.54-3.54c1.24-0.29-0.24-3.271,1.54-3.03
			c0,0.67,0.89,0.46,1.02,1.01c1.9,3.69,5.24,2.62,9.71,2.021c0.67,0.01,0.46,0.89,1.02,1.01C81.72,187.86,82.14,187.73,82.77,188.3
			z"/>
		<path fill="#D2D2D3" d="M83.28,55.46c0.09,0.43-0.2,0.48-0.51,0.51c-5.93,1.2-9.77,4.48-15.33,6.06
			C72.48,59.6,77.03,56.69,83.28,55.46z"/>
		<path fill="#84B592" d="M83.28,168.09c-2.74-0.35-4.36,0.4-6.13,1.01c0.32,1.37-0.65,4.011,0.51,4.551
			c1.24,1.06-0.45,2.239,0.51,3.029c-3.57-2.8-12.43-2.729-11.24-8.59c-2.03-0.51-3.56-1.53-4.6-3.03c0.51,0,1.02,0,1.54,0
			c2.08,1.96,7.01,1.87,9.7,0.511c2.09,1.55,4.11,0.479,7.16,0.5c1.06,0.29,1.08,0.79,0.51,1.52
			C82,167.67,83.12,167.41,83.28,168.09z"/>
		<path fill="#84B592" d="M81.75,174.66c0.28,1.399,1.65,1.43,0,2.52c-0.83-0.699-2.64-0.42-3.07-1.51c0-0.51,0.42-0.6,0.51-1.01
			C80.04,174.66,80.9,174.66,81.75,174.66z"/>
		<path fill="#C0C782" d="M79.19,157.49c2.36,1.49,2.92,6.2,1.54,8.58c-3.05-0.021-5.07,1.05-7.16-0.5
			c-2.25-5.09-2.54-10-5.62-12.12c0.55-1.82,3.1-1.66,4.09-3.03c0.59-1.59-0.8-1.23-1.02-2.02c2.25,0.71,4.82-1.29,5.62-3.54
			c-0.65-1.72-2.91-1.84-5.11-2.02c-6.29,8.13-10.72-1.75-11.24-9.09c-3.82-1.88-8.96-0.04-13.28,0.5
			c-0.21-0.63-0.66-1.03-1.54-1.01c-0.57-2.3,0.09-3.52-0.51-5.05c7.24-4.36,7.73-19.96,19.42-18.18c4.69,0.72,6.65,4.73,10.73,7.07
			c-0.44,1.61,0.44,1.92,1.02,2.53c-2.54,0.38-2.73-1.55-4.6-0.51c0.66-1.56-2.3-3.28-3.58-4.54c-0.46,0.23-0.36,0.48-0.02,0.74
			c-4.11-1.74-12.34-2.66-12.24,4.31c-0.26,0.04-0.55,0.13-0.84,0.25c-0.04-0.08-0.11-0.16-0.18-0.25
			c-0.04,0.14-0.08,0.27-0.14,0.39c-2.17,1.01-4.89,3.66-6.5,5.67c2.09-1.97,5.42-2.72,6.5-5.67c0.11-0.05,0.22-0.1,0.32-0.14
			c0.84,1.3-0.58,2.56,0.33,4.29c4.42-1.96,10.99-5.12,13.8-3.03c-1.49-0.3-1.2,2.49,0.51,3.03c0.08,1.27-0.79,1.58-1.54,2.02
			c-0.2-1.14-2.99,0.27-2.04-2.02c-1.64,0.4-2.58,1.49-4.6,1.52c0.77,1.52,2.24-0.42,3.58,0c-0.61,1.5-0.14,1.71,0.51,3.03
			c-3.29,3.98,2.92,5.81,4.6,8.08c-0.98-0.22-1.29-1.09-2.56-1.01c0.08,2.57,2.55,3.9,1.54,6.06c2.15-0.47,0.91-2.81,3.57-3.54
			c3.05,0.04,5.05,1.39,6.64,1.52c-0.53,0.73-2.62,0.27-4.08-0.51c0.68,1.52,2.59,1.81,3.57,3.03c0.17-3.54,2.86,4.78,2.05,7.58
			c-1.73-0.01-1.26,3.66-3.07,2.02c-1.34,0.601,2.41,1.73,0.51,3.03c-2.4-1.83-1.51,0.86-4.6,1.521c0.86,2.35,2.96,3.47,5.11,4.539
			c-0.85,1.33-2.08,1.7-0.51,3.03c1.53-0.33-0.49-1.08,0-2.02c1.63-0.3,1.58,0.95,2.56,0C80.92,159.82,79.27,159.44,79.19,157.49z
			 M52.12,128.19c0.11-0.78,1.96-2.35,0.51-3.03C51.77,125.73,50.1,127.7,52.12,128.19z"/>
		<path fill="#84B592" d="M80.22,95.87c-2.22-2.99-1.62,0.84-5.11,0.5c0.13,2.49-3.96,4.32-4.6,8.59c-2.17-0.12-3.03,1.05-3.58,2.52
			c-4.31-0.11-6.86-1.97-10.22-3.03c0.79-0.59,3.67,1.25,5.67,0.29c-1.46,1.08,1.12,1.45,2.51,1.73c-0.21-0.97-1.98-0.39-1.54-2.02
			c4.19-2.77,5.79-10.78,6.65-15.15c-0.23-0.02,1.46-0.88,2.04-2.52c-0.57-0.79-1.66-1.06-1.53-2.53c-1.44,0.77-2.1-0.17-4.09,0.51
			C75.27,78.27,78.28,88.65,80.22,95.87z"/>
		<path fill="#84B592" d="M75.11,121.12c1.26,1.15-2.25,3.87-3.58,2.53C72.47,122.56,74.27,122.31,75.11,121.12z"/>
		<path fill="#767E89" d="M72.55,185.77c-0.51,0-1.02,0-1.53,0c-0.13-0.55-1.02-0.34-1.02-1.01c-1.78-0.24-0.3,2.74-1.54,3.03
			c1.35,1.18,2.34,1.22,1.54,3.54c-3.54-0.55-6.57-1.59-8.69-3.54c0.83-1.19-1.06-3.06-3.06-3.03c-1.67-1.55-1.72-4.7-3.07-6.56
			c0-0.17,0-0.34,0-0.51c0.11-2.131-0.79-3.261-1.02-5.051c0.59,0.08,0.91-0.109,1.02-0.51c-0.91-0.45-0.65-2.05-2.55-1.51
			c0,0.17,0,0.34,0,0.5c-0.4-0.11-1.01-0.01-1.03-0.5c0.05-1.98,2.75-1.32,3.58-2.53c-2.78-1.21-5.78-3.439-8.17-3.53
			c0.12,1.7,0.87,3.79,2.04,5.551c-0.03,0.31-0.08,0.6-0.51,0.51c-1.45-0.42-1.33,0.71-2.56,0.5c1.36-2.59-1.37-0.19-2.04-2.521
			c0.43-0.59,0.67-1.359,0.51-2.529c-0.95-1.08-3.16-0.91-3.57-2.521c0.02-0.649,0.65-0.7,0.51-1.52
			c0.88-0.75,2.09-2.561,5.62-2.021c6.45,2.21,13.22,4.101,14.3,11.62c3.71,2.5,8.17,5.43,11.24,7.07c-1.15-0.46-2.25-0.63-3.06,0
			C70.48,181.08,71.71,183.24,72.55,185.77z"/>
		<path fill="#84B592" d="M69.49,105.97c1.59-0.16-1.3,1.46,0.51,1.51c-0.44,1.48-1.65-0.3-2.56,0
			C67.22,106.09,69.35,107.01,69.49,105.97z"/>
		<path fill="#C0C782" d="M67.94,115.3c0.82,0.35,1.47,0.73,1.86,1.08C69.34,116.04,68.41,115.67,67.94,115.3z"/>
		<path fill="#6A6B6F" d="M66.93,62.53c0.72,0.13,0.58,1.11,1.02,1.52c-2.76,1.3-4.74,3.39-8.17,4.04c0.11-0.96-0.58-1.12-0.51-2.02
			c1.41-1.13,3.12-1.97,5.11-2.53c0.79,1.15,1.06,0.96,2.55,0.51c-0.27-0.41-0.53-0.82-0.51-1.52
			C66.59,62.53,66.76,62.53,66.93,62.53z"/>
		<path fill="#767E89" d="M66.42,62.53c-0.02,0.7,0.24,1.11,0.51,1.52c-1.49,0.45-1.76,0.64-2.55-0.51
			C64.45,62.61,66.11,63.23,66.42,62.53z"/>
		<path fill="#A0CD94" d="M67.95,126.17c-0.76,0.93-1.61,1.77-2.55,2.53c-0.65-1.32-1.12-1.53-0.51-3.03
			c-1.34-0.42-2.81,1.52-3.58,0c2.02-0.03,2.96-1.12,4.6-1.52C64.96,126.44,67.75,125.03,67.95,126.17z"/>
		<path fill="#84B592" d="M62.38,104.74c0.12-0.09,0.28-0.19,0.46-0.29C62.69,104.57,62.54,104.66,62.38,104.74z"/>
		<path fill="#8B8D92" d="M58.25,184.76c2-0.029,3.89,1.84,3.06,3.03C60.07,186.99,59.05,185.98,58.25,184.76z"/>
		<path fill="#84B592" d="M61.31,107.48c-1.76-0.39-2.25,0.48-2.55,1.52c-1.86-0.16-3.33,0.08-4.6,0.5c0.11-4.88-4.2-8.54,1.02-10.6
			c-0.06,1.6,1.73,3.97,1.02,4.54c-1.94-0.23,0.44-2.71-2.04-3.03C53.68,107.4,56.97,104.95,61.31,107.48z"/>
		<path fill="#D2D2D3" d="M54.16,172.64c0.23,1.79,1.13,2.92,1.02,5.051c-1.03-3.03-1.64-6.46-5.11-7.07c0.51,0,1.02,0,1.53,0
			c0.02,0.49,0.63,0.39,1.03,0.5C52.91,171.85,53.42,172.36,54.16,172.64z"/>
		<path fill="#C9AD5D" d="M54.67,119.61c0.07,0.09,0.14,0.17,0.18,0.25c-0.1,0.04-0.21,0.09-0.32,0.14
			C54.59,119.88,54.63,119.75,54.67,119.61z"/>
		<path fill="#8B8D92" d="M55.18,172.13c-0.11,0.4-0.43,0.59-1.02,0.51c-0.74-0.279-1.25-0.79-1.53-1.52c0-0.16,0-0.33,0-0.5
			C54.53,170.08,54.27,171.68,55.18,172.13z"/>
		<path fill="#6A6B6F" d="M55.18,168.09c-0.83,1.21-3.53,0.55-3.58,2.53c-0.51,0-1.02,0-1.53,0c-0.51,0-0.61-0.41-1.02-0.51
			c-1.17-1.761-1.92-3.851-2.04-5.551C49.4,164.65,52.4,166.88,55.18,168.09z"/>
		<path fill="#C9AD5D" d="M52.63,125.16c1.45,0.68-0.4,2.25-0.51,3.03C50.1,127.7,51.77,125.73,52.63,125.16z"/>
		<path fill="#C9AD5D" d="M54.53,120c-1.08,2.95-4.41,3.7-6.5,5.67C49.64,123.66,52.36,121.01,54.53,120z"/>
		<path fill="#D2D2D3" d="M45.98,171.12c1.23,0.21,1.11-0.92,2.56-0.5c-3.09,2.63-5.75,2.899-8.37,2.27
			C42.24,172.87,44.32,172.07,45.98,171.12z"/>
		<path fill="#6A6B6F" d="M42.92,77.68c-0.42-0.9,3.76-3.82,5.11-3.03c-1.04-1.01,0.86-1.7,2.04-2.02
			c-0.19,2.76-4.02,1.97-3.57,4.04C44.91,76.62,43.66,76.9,42.92,77.68z"/>
		<path fill="#8293A9" d="M47.01,160.01c-3.53-0.54-4.74,1.271-5.62,2.021c-11.77-0.49-10.02-15.29-16.86-19.19
			c-0.8,1.79,1.73,0.3,1.53,1.51c-1.93-0.73-0.98,1.39-2.56,1.01c1.09-1.37-0.6-1.8-1.02-2.02c1.94-0.82,0.23-3.38-1.02-4.04
			c0.7-0.02,1.12,0.24,1.53,0.51c0.5-6.05,0.77-15.02,5.11-19.7c1.42,0.75-1.08,2.26,1.02,2.02c1.07-1.01-0.37-1.77-1.02-2.52
			c2.03-2.91,0.78-1.41,0.51-5.05c1.88-0.27,1.54-2.72,1.02-4.05c0.81-0.04,1.78,0.07,1.54-1.01c2.15-5.95,7.99-8.26,11.24-13.13
			c-0.16-1.19-1.78-0.94-1.53-2.52c0.51,0,0.6-0.41,1.02-0.51c0.63,1.06,1.41,1.97,2.04,3.03c-1.34,4.8-10.2,5.6-7.66,11.11
			c-1.75,0.21-0.65,1.37-2.56,0.51c0.41,2.12,3.77,1.32,4.09,3.53c-2.9,6.28-3.39,12.39-4.6,19.7c0,0.17,0,0.34,0,0.51
			c-1.21,2.87-1.46,8.26,1.53,10.1c0.04,3.83,1.72,6.05,3.58,8.08c1.19,1.689,2.06,3.689,3.07,5.56c1.3,0.86,1.78-0.58,2.55,0.5
			C41.25,157.56,46.78,158.12,47.01,160.01z"/>
		<path fill="#8B8D92" d="M43.94,168.6c0.67,2.33,3.4-0.069,2.04,2.521c-1.66,0.95-3.74,1.75-5.81,1.77
			c-1.13-0.27-2.24-0.71-3.38-1.199c0-0.021,0-0.04,0-0.061c0.9-0.95,1.49,0.601,2.55-0.51c-0.91-1.04-6.2-3.28-3.57-0.5
			c-5.53-2.95-15.05-1.97-18.91-6.57c0-0.33,0-0.67,0-1.01c2.08,0.56,3.38-2.71,6.64-2.521c-4.94-3.27-9.97-4.699-13.28-9.6
			c-0.34-0.5-0.96-0.75-1.53-1.01c0.26-3.46-0.91-5.5-0.51-9.09c-0.53-8.23,1.89-12.38,0.51-17.17c-1.81,0.17-1.26,1.39-3.07,0.5
			c1.54-2.85,1.59-7.18,3.58-9.59c2.16-0.19,0.45,2.18,0.51,3.03c1.85,0.19-0.39-2.05,2.55-1.52c1.84,1.05,1.1,2.36,1.03,4.55
			c1.76,0.98,3.09-2.14,5.1-2.53c0.32-4.99,5.6-4.64,5.11-8.59c-0.59,1.41-3.25,4.53-4.08,2.53c2.19-0.49,3.63-3.49,6.13-5.05
			c0.74,1.45,2.92,1.48,3.06,3.53c1.27,0.08,1.58-0.79,2.56-1.01c0.24,1.08-0.73,0.97-1.54,1.01c0.52,1.33,0.86,3.78-1.02,4.05
			c0.27,3.64,1.52,2.14-0.51,5.05c0.65,0.75,2.09,1.51,1.02,2.52c-2.1,0.24,0.4-1.27-1.02-2.02c-4.34,4.68-4.61,13.65-5.11,19.7
			c-0.41-0.27-0.83-0.53-1.53-0.51c1.25,0.66,2.96,3.22,1.02,4.04c0.42,0.22,2.11,0.65,1.02,2.02c1.58,0.38,0.63-1.74,2.56-1.01
			c0.2-1.21-2.33,0.28-1.53-1.51c6.84,3.9,5.09,18.7,16.86,19.19c0.14,0.819-0.49,0.87-0.51,1.52c0.41,1.61,2.62,1.44,3.57,2.521
			C44.61,167.24,44.37,168.01,43.94,168.6z"/>
		<path fill="#8B8D92" d="M40.17,172.89c-1.16,0.03-2.31-0.189-3.38-0.76c0-0.14,0-0.29,0-0.439
			C37.93,172.18,39.04,172.62,40.17,172.89z"/>
		<path fill="#A1A1A1" d="M39.34,171.12c-1.06,1.11-1.65-0.44-2.55,0.51c-0.46-0.22-0.92-0.439-1.02-1.01
			C33.14,167.84,38.43,170.08,39.34,171.12z"/>
		<path fill="#D2D2D3" d="M52.63,68.59C42.37,76.3,29.9,81.82,22.48,92.33c-0.9,0.46-1.58,1.13-2.04,2.02
			c-2.84,3.93-5.71,7.82-7.67,12.63c-1.04,0.14-1.02,1.35-1.53,2.02c-0.48,2.05-1.91,3.16-2.04,5.56c-1.99,2.41-2.04,6.74-3.58,9.59
			c0.22,1.06-0.35,1.34-0.51,2.02c0.04,0.72,0.09,1.43-0.51,1.52c0-0.68,0-1.35,0-2.02C11.74,97.88,29.72,80.8,52.63,68.59z"/>
		<path fill="#D2D2D3" d="M36.79,171.63c0,0.021,0,0.04,0,0.061c-1.63-0.7-3.3-1.511-5.11-2.08c-4.18-1.32-8.81-1.221-11.75-2.53
			c-7.01-3.1-10.84-10.74-12.26-16.16c0.39,0.11,0.59,0.42,0.51,1.01c0.8,1.73,1.25,3.82,2.55,5.051c0.44,1.75,1.59,2.8,2.56,4.039
			c0.8,1.23,1.82,2.24,3.06,3.03c0.17,0,0.34,0,0.51,0c3.86,4.601,13.38,3.62,18.91,6.57C35.87,171.19,36.33,171.41,36.79,171.63z"
			/>
		<path fill="#84B6AC" d="M35.25,126.68c-0.48,1.88-0.15,4.56-2.04,5.05c0-0.17,0-0.34,0-0.51
			C34.3,130.11,33.81,127.44,35.25,126.68z"/>
		<path fill="#6A6B6F" d="M37.3,81.73c-0.17,3.12-4.77,4.33-7.67,5.55C30.35,85.65,34.99,81.9,37.3,81.73z"/>
		<path fill="#767E89" d="M23.5,160.52c-3.26-0.189-4.56,3.08-6.64,2.521c0,0.34,0,0.68,0,1.01c-0.17,0-0.34,0-0.51,0
			c0.37-2.22-1.1-2.62-2.55-3.03c0.37-0.899,0.93-0.069,1.53,0c1.66-2.479-2.66-4.989-4.6-4.039c-1.3-1.23-1.75-3.32-2.55-5.051
			c2.08,0.15,0.27-1.05,0.51-2.02c0.57,0.26,1.19,0.51,1.53,1.01C13.53,155.82,18.56,157.25,23.5,160.52z"/>
		<path fill="#8B8D92" d="M22.48,92.33c1.28,0.65-0.54,2.45-2.04,2.02C20.9,93.46,21.58,92.79,22.48,92.33z"/>
		<path fill="#8B8D92" d="M13.8,161.02c1.45,0.41,2.92,0.811,2.55,3.03c-1.24-0.79-2.26-1.8-3.06-3.03
			C13.46,161.02,13.63,161.02,13.8,161.02z"/>
		<path fill="#6A6B6F" d="M10.73,156.98c1.94-0.95,6.26,1.56,4.6,4.039c-0.6-0.069-1.16-0.899-1.53,0c-0.17,0-0.34,0-0.51,0
			C12.32,159.78,11.17,158.73,10.73,156.98z"/>
		<path fill="#8B8D92" d="M12.77,106.98c0.63,0.06,1.21,0.15,1.03,1.01c-0.98,0.21-0.93,1.44-2.56,1.01
			C11.75,108.33,11.73,107.12,12.77,106.98z"/>
		<path fill="#767E89" d="M8.69,123.65c1.38,4.79-1.04,8.94-0.51,17.17c-2.72-3.07-0.73-10.42-3.07-12.63
			c0.14-1.04,2.26-0.12,2.04-1.51c-0.44-0.76-0.76,0.14-2.04-0.51c0.16-0.68,0.73-0.96,0.51-2.02
			C7.43,125.04,6.88,123.82,8.69,123.65z"/>
		<path fill="#6A6B6F" d="M8.18,140.82c-0.4,3.59,0.77,5.63,0.51,9.09c-0.24,0.97,1.57,2.17-0.51,2.02
			c0.08-0.59-0.12-0.899-0.51-1.01c-1.58-2.65-1.51-6.93-3.07-9.6c0-4.54,0-9.09,0-13.63c0.6-0.09,0.55-0.8,0.51-1.52
			c1.28,0.65,1.6-0.25,2.04,0.51c0.22,1.39-1.9,0.47-2.04,1.51C7.45,130.4,5.46,137.75,8.18,140.82z"/>
	</g>
	<g>
	</g>
</g>
<text transform="matrix(1 0 0 1 211.6411 168.0596)" font-family="'TrebuchetMS'" font-size="120">GBM ATLAS</text>
</svg>
